<svg width="403" height="807" viewBox="0 0 403 807" fill="none" xmlns="http://www.w3.org/2000/svg">
<g filter="url(#filter0_dd_899_2579)">
<rect x="20" y="8" width="363" height="321" rx="10" fill="white"/>
<path d="M57.84 60.14C56.5467 60.14 55.3533 59.84 54.26 59.24C53.18 58.6267 52.32 57.78 51.68 56.7C51.0533 55.6067 50.74 54.38 50.74 53.02C50.74 51.66 51.0533 50.44 51.68 49.36C52.32 48.28 53.18 47.44 54.26 46.84C55.3533 46.2267 56.5467 45.92 57.84 45.92C59.1467 45.92 60.34 46.2267 61.42 46.84C62.5133 47.44 63.3733 48.28 64 49.36C64.6267 50.44 64.94 51.66 64.94 53.02C64.94 54.38 64.6267 55.6067 64 56.7C63.3733 57.78 62.5133 58.6267 61.42 59.24C60.34 59.84 59.1467 60.14 57.84 60.14ZM57.84 58.16C58.76 58.16 59.58 57.9533 60.3 57.54C61.02 57.1133 61.58 56.5133 61.98 55.74C62.3933 54.9533 62.6 54.0467 62.6 53.02C62.6 51.9933 62.3933 51.0933 61.98 50.32C61.58 49.5467 61.02 48.9533 60.3 48.54C59.58 48.1267 58.76 47.92 57.84 47.92C56.92 47.92 56.1 48.1267 55.38 48.54C54.66 48.9533 54.0933 49.5467 53.68 50.32C53.28 51.0933 53.08 51.9933 53.08 53.02C53.08 54.0467 53.28 54.9533 53.68 55.74C54.0933 56.5133 54.66 57.1133 55.38 57.54C56.1 57.9533 56.92 58.16 57.84 58.16ZM77.1636 48.98V60H74.8836V58.7C74.5236 59.1533 74.0503 59.5133 73.4636 59.78C72.8903 60.0333 72.2769 60.16 71.6236 60.16C70.7569 60.16 69.9769 59.98 69.2836 59.62C68.6036 59.26 68.0636 58.7267 67.6636 58.02C67.2769 57.3133 67.0836 56.46 67.0836 55.46V48.98H69.3436V55.12C69.3436 56.1067 69.5903 56.8667 70.0836 57.4C70.5769 57.92 71.2503 58.18 72.1036 58.18C72.9569 58.18 73.6303 57.92 74.1236 57.4C74.6303 56.8667 74.8836 56.1067 74.8836 55.12V48.98H77.1636ZM82.4519 50.58C82.7852 50.02 83.2252 49.5867 83.7719 49.28C84.3319 48.96 84.9919 48.8 85.7519 48.8V51.16H85.1719C84.2785 51.16 83.5985 51.3867 83.1319 51.84C82.6785 52.2933 82.4519 53.08 82.4519 54.2V60H80.1719V48.98H82.4519V50.58ZM105.023 46.1L99.803 60H97.163L91.923 46.1H94.363L98.483 57.66L102.623 46.1H105.023ZM108.09 47.52C107.676 47.52 107.33 47.38 107.05 47.1C106.77 46.82 106.63 46.4733 106.63 46.06C106.63 45.6467 106.77 45.3 107.05 45.02C107.33 44.74 107.676 44.6 108.09 44.6C108.49 44.6 108.83 44.74 109.11 45.02C109.39 45.3 109.53 45.6467 109.53 46.06C109.53 46.4733 109.39 46.82 109.11 47.1C108.83 47.38 108.49 47.52 108.09 47.52ZM109.21 48.98V60H106.93V48.98H109.21ZM116.203 60.18C115.336 60.18 114.556 60.0267 113.863 59.72C113.183 59.4 112.643 58.9733 112.243 58.44C111.843 57.8933 111.63 57.2867 111.603 56.62H113.963C114.003 57.0867 114.223 57.48 114.623 57.8C115.036 58.1067 115.55 58.26 116.163 58.26C116.803 58.26 117.296 58.14 117.643 57.9C118.003 57.6467 118.183 57.3267 118.183 56.94C118.183 56.5267 117.983 56.22 117.583 56.02C117.196 55.82 116.576 55.6 115.723 55.36C114.896 55.1333 114.223 54.9133 113.703 54.7C113.183 54.4867 112.73 54.16 112.343 53.72C111.97 53.28 111.783 52.7 111.783 51.98C111.783 51.3933 111.956 50.86 112.303 50.38C112.65 49.8867 113.143 49.5 113.783 49.22C114.436 48.94 115.183 48.8 116.023 48.8C117.276 48.8 118.283 49.12 119.043 49.76C119.816 50.3867 120.23 51.2467 120.283 52.34H118.003C117.963 51.8467 117.763 51.4533 117.403 51.16C117.043 50.8667 116.556 50.72 115.943 50.72C115.343 50.72 114.883 50.8333 114.563 51.06C114.243 51.2867 114.083 51.5867 114.083 51.96C114.083 52.2533 114.19 52.5 114.403 52.7C114.616 52.9 114.876 53.06 115.183 53.18C115.49 53.2867 115.943 53.4267 116.543 53.6C117.343 53.8133 117.996 54.0333 118.503 54.26C119.023 54.4733 119.47 54.7933 119.843 55.22C120.216 55.6467 120.41 56.2133 120.423 56.92C120.423 57.5467 120.25 58.1067 119.903 58.6C119.556 59.0933 119.063 59.48 118.423 59.76C117.796 60.04 117.056 60.18 116.203 60.18ZM124.047 47.52C123.633 47.52 123.287 47.38 123.007 47.1C122.727 46.82 122.587 46.4733 122.587 46.06C122.587 45.6467 122.727 45.3 123.007 45.02C123.287 44.74 123.633 44.6 124.047 44.6C124.447 44.6 124.787 44.74 125.067 45.02C125.347 45.3 125.487 45.6467 125.487 46.06C125.487 46.4733 125.347 46.82 125.067 47.1C124.787 47.38 124.447 47.52 124.047 47.52ZM125.167 48.98V60H122.887V48.98H125.167ZM130.82 50.84V56.94C130.82 57.3533 130.913 57.6533 131.1 57.84C131.3 58.0133 131.633 58.1 132.1 58.1H133.5V60H131.7C130.673 60 129.887 59.76 129.34 59.28C128.793 58.8 128.52 58.02 128.52 56.94V50.84H127.22V48.98H128.52V46.24H130.82V48.98H133.5V50.84H130.82ZM140.382 60.18C139.342 60.18 138.402 59.9467 137.562 59.48C136.722 59 136.062 58.3333 135.582 57.48C135.102 56.6133 134.862 55.6133 134.862 54.48C134.862 53.36 135.108 52.3667 135.602 51.5C136.095 50.6333 136.768 49.9667 137.622 49.5C138.475 49.0333 139.428 48.8 140.482 48.8C141.535 48.8 142.488 49.0333 143.342 49.5C144.195 49.9667 144.868 50.6333 145.362 51.5C145.855 52.3667 146.102 53.36 146.102 54.48C146.102 55.6 145.848 56.5933 145.342 57.46C144.835 58.3267 144.142 59 143.262 59.48C142.395 59.9467 141.435 60.18 140.382 60.18ZM140.382 58.2C140.968 58.2 141.515 58.06 142.022 57.78C142.542 57.5 142.962 57.08 143.282 56.52C143.602 55.96 143.762 55.28 143.762 54.48C143.762 53.68 143.608 53.0067 143.302 52.46C142.995 51.9 142.588 51.48 142.082 51.2C141.575 50.92 141.028 50.78 140.442 50.78C139.855 50.78 139.308 50.92 138.802 51.2C138.308 51.48 137.915 51.9 137.622 52.46C137.328 53.0067 137.182 53.68 137.182 54.48C137.182 55.6667 137.482 56.5867 138.082 57.24C138.695 57.88 139.462 58.2 140.382 58.2ZM150.635 50.58C150.969 50.02 151.409 49.5867 151.955 49.28C152.515 48.96 153.175 48.8 153.935 48.8V51.16H153.355C152.462 51.16 151.782 51.3867 151.315 51.84C150.862 52.2933 150.635 53.08 150.635 54.2V60H148.355V48.98H150.635V50.58ZM160.031 60.18C159.165 60.18 158.385 60.0267 157.691 59.72C157.011 59.4 156.471 58.9733 156.071 58.44C155.671 57.8933 155.458 57.2867 155.431 56.62H157.791C157.831 57.0867 158.051 57.48 158.451 57.8C158.865 58.1067 159.378 58.26 159.991 58.26C160.631 58.26 161.125 58.14 161.471 57.9C161.831 57.6467 162.011 57.3267 162.011 56.94C162.011 56.5267 161.811 56.22 161.411 56.02C161.025 55.82 160.405 55.6 159.551 55.36C158.725 55.1333 158.051 54.9133 157.531 54.7C157.011 54.4867 156.558 54.16 156.171 53.72C155.798 53.28 155.611 52.7 155.611 51.98C155.611 51.3933 155.785 50.86 156.131 50.38C156.478 49.8867 156.971 49.5 157.611 49.22C158.265 48.94 159.011 48.8 159.851 48.8C161.105 48.8 162.111 49.12 162.871 49.76C163.645 50.3867 164.058 51.2467 164.111 52.34H161.831C161.791 51.8467 161.591 51.4533 161.231 51.16C160.871 50.8667 160.385 50.72 159.771 50.72C159.171 50.72 158.711 50.8333 158.391 51.06C158.071 51.2867 157.911 51.5867 157.911 51.96C157.911 52.2533 158.018 52.5 158.231 52.7C158.445 52.9 158.705 53.06 159.011 53.18C159.318 53.2867 159.771 53.4267 160.371 53.6C161.171 53.8133 161.825 54.0333 162.331 54.26C162.851 54.4733 163.298 54.7933 163.671 55.22C164.045 55.6467 164.238 56.2133 164.251 56.92C164.251 57.5467 164.078 58.1067 163.731 58.6C163.385 59.0933 162.891 59.48 162.251 59.76C161.625 60.04 160.885 60.18 160.031 60.18Z" fill="#3A4752"/>
<path d="M54.116 73.242C55.18 73.242 56.0993 73.4427 56.874 73.844C57.658 74.236 58.2553 74.8007 58.666 75.538C59.086 76.2753 59.296 77.1433 59.296 78.142C59.296 79.1407 59.086 80.0087 58.666 80.746C58.2553 81.474 57.658 82.034 56.874 82.426C56.0993 82.8087 55.18 83 54.116 83H51.078V73.242H54.116ZM54.116 81.95C55.376 81.95 56.3373 81.6187 57 80.956C57.6627 80.284 57.994 79.346 57.994 78.142C57.994 76.9287 57.658 75.9813 56.986 75.3C56.3233 74.6187 55.3667 74.278 54.116 74.278H52.352V81.95H54.116ZM61.6344 74.082C61.3918 74.082 61.1864 73.998 61.0184 73.83C60.8504 73.662 60.7664 73.4567 60.7664 73.214C60.7664 72.9713 60.8504 72.766 61.0184 72.598C61.1864 72.43 61.3918 72.346 61.6344 72.346C61.8678 72.346 62.0638 72.43 62.2224 72.598C62.3904 72.766 62.4744 72.9713 62.4744 73.214C62.4744 73.4567 62.3904 73.662 62.2224 73.83C62.0638 73.998 61.8678 74.082 61.6344 74.082ZM62.2504 75.328V83H60.9764V75.328H62.2504ZM67.5438 76.378H65.9338V83H64.6598V76.378H63.6658V75.328H64.6598V74.782C64.6598 73.9233 64.8791 73.298 65.3178 72.906C65.7658 72.5047 66.4798 72.304 67.4597 72.304V73.368C66.8998 73.368 66.5031 73.48 66.2698 73.704C66.0458 73.9187 65.9338 74.278 65.9338 74.782V75.328H67.5438V76.378ZM72.1512 76.378H70.5412V83H69.2672V76.378H68.2732V75.328H69.2672V74.782C69.2672 73.9233 69.4865 73.298 69.9252 72.906C70.3732 72.5047 71.0872 72.304 72.0672 72.304V73.368C71.5072 73.368 71.1105 73.48 70.8772 73.704C70.6532 73.9187 70.5412 74.278 70.5412 74.782V75.328H72.1512V76.378ZM80.6366 78.87C80.6366 79.1127 80.6226 79.3693 80.5946 79.64H74.4626C74.5093 80.396 74.7659 80.9887 75.2326 81.418C75.7086 81.838 76.2826 82.048 76.9546 82.048C77.5053 82.048 77.9626 81.922 78.3266 81.67C78.6999 81.4087 78.9613 81.0633 79.1106 80.634H80.4826C80.2773 81.3713 79.8666 81.9733 79.2506 82.44C78.6346 82.8973 77.8693 83.126 76.9546 83.126C76.2266 83.126 75.5733 82.9627 74.9946 82.636C74.4253 82.3093 73.9773 81.8473 73.6506 81.25C73.3239 80.6433 73.1606 79.9433 73.1606 79.15C73.1606 78.3567 73.3193 77.6613 73.6366 77.064C73.9539 76.4667 74.3973 76.0093 74.9666 75.692C75.5453 75.3653 76.2079 75.202 76.9546 75.202C77.6826 75.202 78.3266 75.3607 78.8866 75.678C79.4466 75.9953 79.8759 76.434 80.1746 76.994C80.4826 77.5447 80.6366 78.17 80.6366 78.87ZM79.3206 78.604C79.3206 78.1187 79.2133 77.7033 78.9986 77.358C78.7839 77.0033 78.4899 76.7373 78.1166 76.56C77.7526 76.3733 77.3466 76.28 76.8986 76.28C76.2546 76.28 75.7039 76.4853 75.2466 76.896C74.7986 77.3067 74.5419 77.876 74.4766 78.604H79.3206ZM83.5922 76.574C83.8162 76.1353 84.1336 75.7947 84.5442 75.552C84.9642 75.3093 85.4729 75.188 86.0702 75.188V76.504H85.7342C84.3062 76.504 83.5922 77.2787 83.5922 78.828V83H82.3182V75.328H83.5922V76.574ZM87.0649 79.136C87.0649 78.352 87.2236 77.666 87.5409 77.078C87.8582 76.4807 88.2922 76.0187 88.8429 75.692C89.4029 75.3653 90.0236 75.202 90.7049 75.202C91.3769 75.202 91.9602 75.3467 92.4549 75.636C92.9496 75.9253 93.3182 76.2893 93.5609 76.728V75.328H94.8489V83H93.5609V81.572C93.3089 82.02 92.9309 82.3933 92.4269 82.692C91.9322 82.9813 91.3536 83.126 90.6909 83.126C90.0096 83.126 89.3936 82.958 88.8429 82.622C88.2922 82.286 87.8582 81.8147 87.5409 81.208C87.2236 80.6013 87.0649 79.9107 87.0649 79.136ZM93.5609 79.15C93.5609 78.5713 93.4442 78.0673 93.2109 77.638C92.9776 77.2087 92.6602 76.882 92.2589 76.658C91.8669 76.4247 91.4329 76.308 90.9569 76.308C90.4809 76.308 90.0469 76.42 89.6549 76.644C89.2629 76.868 88.9502 77.1947 88.7169 77.624C88.4836 78.0533 88.3669 78.5573 88.3669 79.136C88.3669 79.724 88.4836 80.2373 88.7169 80.676C88.9502 81.1053 89.2629 81.4367 89.6549 81.67C90.0469 81.894 90.4809 82.006 90.9569 82.006C91.4329 82.006 91.8669 81.894 92.2589 81.67C92.6602 81.4367 92.9776 81.1053 93.2109 80.676C93.4442 80.2373 93.5609 79.7287 93.5609 79.15ZM100.74 75.188C101.673 75.188 102.429 75.4727 103.008 76.042C103.586 76.602 103.876 77.414 103.876 78.478V83H102.616V78.66C102.616 77.8947 102.424 77.3113 102.042 76.91C101.659 76.4993 101.136 76.294 100.474 76.294C99.8018 76.294 99.2652 76.504 98.8638 76.924C98.4718 77.344 98.2758 77.9553 98.2758 78.758V83H97.0018V75.328H98.2758V76.42C98.5278 76.028 98.8685 75.7247 99.2978 75.51C99.7365 75.2953 100.217 75.188 100.74 75.188ZM107.511 76.378V80.9C107.511 81.2733 107.59 81.5393 107.749 81.698C107.908 81.8473 108.183 81.922 108.575 81.922H109.513V83H108.365C107.656 83 107.124 82.8367 106.769 82.51C106.414 82.1833 106.237 81.6467 106.237 80.9V76.378H105.243V75.328H106.237V73.396H107.511V75.328H109.513V76.378H107.511ZM117.827 73.242C118.891 73.242 119.81 73.4427 120.585 73.844C121.369 74.236 121.966 74.8007 122.377 75.538C122.797 76.2753 123.007 77.1433 123.007 78.142C123.007 79.1407 122.797 80.0087 122.377 80.746C121.966 81.474 121.369 82.034 120.585 82.426C119.81 82.8087 118.891 83 117.827 83H114.789V73.242H117.827ZM117.827 81.95C119.087 81.95 120.048 81.6187 120.711 80.956C121.374 80.284 121.705 79.346 121.705 78.142C121.705 76.9287 121.369 75.9813 120.697 75.3C120.034 74.6187 119.078 74.278 117.827 74.278H116.063V81.95H117.827ZM131.687 78.87C131.687 79.1127 131.673 79.3693 131.645 79.64H125.513C125.56 80.396 125.817 80.9887 126.283 81.418C126.759 81.838 127.333 82.048 128.005 82.048C128.556 82.048 129.013 81.922 129.377 81.67C129.751 81.4087 130.012 81.0633 130.161 80.634H131.533C131.328 81.3713 130.917 81.9733 130.301 82.44C129.685 82.8973 128.92 83.126 128.005 83.126C127.277 83.126 126.624 82.9627 126.045 82.636C125.476 82.3093 125.028 81.8473 124.701 81.25C124.375 80.6433 124.211 79.9433 124.211 79.15C124.211 78.3567 124.37 77.6613 124.687 77.064C125.005 76.4667 125.448 76.0093 126.017 75.692C126.596 75.3653 127.259 75.202 128.005 75.202C128.733 75.202 129.377 75.3607 129.937 75.678C130.497 75.9953 130.927 76.434 131.225 76.994C131.533 77.5447 131.687 78.17 131.687 78.87ZM130.371 78.604C130.371 78.1187 130.264 77.7033 130.049 77.358C129.835 77.0033 129.541 76.7373 129.167 76.56C128.803 76.3733 128.397 76.28 127.949 76.28C127.305 76.28 126.755 76.4853 126.297 76.896C125.849 77.3067 125.593 77.876 125.527 78.604H130.371ZM136.225 81.824L138.605 75.328H139.963L136.953 83H135.469L132.459 75.328H133.831L136.225 81.824ZM141.875 74.082C141.632 74.082 141.427 73.998 141.259 73.83C141.091 73.662 141.007 73.4567 141.007 73.214C141.007 72.9713 141.091 72.766 141.259 72.598C141.427 72.43 141.632 72.346 141.875 72.346C142.108 72.346 142.304 72.43 142.463 72.598C142.631 72.766 142.715 72.9713 142.715 73.214C142.715 73.4567 142.631 73.662 142.463 73.83C142.304 73.998 142.108 74.082 141.875 74.082ZM142.491 75.328V83H141.217V75.328H142.491ZM144.186 79.15C144.186 78.3567 144.345 77.666 144.662 77.078C144.979 76.4807 145.418 76.0187 145.978 75.692C146.547 75.3653 147.196 75.202 147.924 75.202C148.867 75.202 149.641 75.4307 150.248 75.888C150.864 76.3453 151.27 76.98 151.466 77.792H150.094C149.963 77.3253 149.707 76.9567 149.324 76.686C148.951 76.4153 148.484 76.28 147.924 76.28C147.196 76.28 146.608 76.532 146.16 77.036C145.712 77.5307 145.488 78.2353 145.488 79.15C145.488 80.074 145.712 80.788 146.16 81.292C146.608 81.796 147.196 82.048 147.924 82.048C148.484 82.048 148.951 81.9173 149.324 81.656C149.697 81.3947 149.954 81.0213 150.094 80.536H151.466C151.261 81.32 150.85 81.95 150.234 82.426C149.618 82.8927 148.848 83.126 147.924 83.126C147.196 83.126 146.547 82.9627 145.978 82.636C145.418 82.3093 144.979 81.8473 144.662 81.25C144.345 80.6527 144.186 79.9527 144.186 79.15ZM160.166 78.87C160.166 79.1127 160.152 79.3693 160.124 79.64H153.992C154.039 80.396 154.295 80.9887 154.762 81.418C155.238 81.838 155.812 82.048 156.484 82.048C157.035 82.048 157.492 81.922 157.856 81.67C158.229 81.4087 158.491 81.0633 158.64 80.634H160.012C159.807 81.3713 159.396 81.9733 158.78 82.44C158.164 82.8973 157.399 83.126 156.484 83.126C155.756 83.126 155.103 82.9627 154.524 82.636C153.955 82.3093 153.507 81.8473 153.18 81.25C152.853 80.6433 152.69 79.9433 152.69 79.15C152.69 78.3567 152.849 77.6613 153.166 77.064C153.483 76.4667 153.927 76.0093 154.496 75.692C155.075 75.3653 155.737 75.202 156.484 75.202C157.212 75.202 157.856 75.3607 158.416 75.678C158.976 75.9953 159.405 76.434 159.704 76.994C160.012 77.5447 160.166 78.17 160.166 78.87ZM158.85 78.604C158.85 78.1187 158.743 77.7033 158.528 77.358C158.313 77.0033 158.019 76.7373 157.646 76.56C157.282 76.3733 156.876 76.28 156.428 76.28C155.784 76.28 155.233 76.4853 154.776 76.896C154.328 77.3067 154.071 77.876 154.006 78.604H158.85ZM164.564 83.126C163.976 83.126 163.448 83.028 162.982 82.832C162.515 82.6267 162.146 82.3467 161.876 81.992C161.605 81.628 161.456 81.2127 161.428 80.746H162.744C162.781 81.1287 162.958 81.4413 163.276 81.684C163.602 81.9267 164.027 82.048 164.55 82.048C165.035 82.048 165.418 81.9407 165.698 81.726C165.978 81.5113 166.118 81.2407 166.118 80.914C166.118 80.578 165.968 80.3307 165.67 80.172C165.371 80.004 164.909 79.8407 164.284 79.682C163.714 79.5327 163.248 79.3833 162.884 79.234C162.529 79.0753 162.221 78.8467 161.96 78.548C161.708 78.24 161.582 77.8387 161.582 77.344C161.582 76.952 161.698 76.5927 161.932 76.266C162.165 75.9393 162.496 75.6827 162.926 75.496C163.355 75.3 163.845 75.202 164.396 75.202C165.245 75.202 165.931 75.4167 166.454 75.846C166.976 76.2753 167.256 76.8633 167.294 77.61H166.02C165.992 77.2087 165.828 76.8867 165.53 76.644C165.24 76.4013 164.848 76.28 164.354 76.28C163.896 76.28 163.532 76.378 163.262 76.574C162.991 76.77 162.856 77.0267 162.856 77.344C162.856 77.596 162.935 77.806 163.094 77.974C163.262 78.1327 163.467 78.2633 163.71 78.366C163.962 78.4593 164.307 78.5667 164.746 78.688C165.296 78.8373 165.744 78.9867 166.09 79.136C166.435 79.276 166.729 79.4907 166.972 79.78C167.224 80.0693 167.354 80.4473 167.364 80.914C167.364 81.334 167.247 81.712 167.014 82.048C166.78 82.384 166.449 82.65 166.02 82.846C165.6 83.0327 165.114 83.126 164.564 83.126ZM174.14 73.242V79.416C174.14 80.284 174.35 80.928 174.77 81.348C175.2 81.768 175.792 81.978 176.548 81.978C177.295 81.978 177.878 81.768 178.298 81.348C178.728 80.928 178.942 80.284 178.942 79.416V73.242H180.216V79.402C180.216 80.214 180.053 80.9 179.726 81.46C179.4 82.0107 178.956 82.4213 178.396 82.692C177.846 82.9627 177.225 83.098 176.534 83.098C175.844 83.098 175.218 82.9627 174.658 82.692C174.108 82.4213 173.669 82.0107 173.342 81.46C173.025 80.9 172.866 80.214 172.866 79.402V73.242H174.14ZM185.058 83.126C184.47 83.126 183.942 83.028 183.476 82.832C183.009 82.6267 182.64 82.3467 182.37 81.992C182.099 81.628 181.95 81.2127 181.922 80.746H183.238C183.275 81.1287 183.452 81.4413 183.77 81.684C184.096 81.9267 184.521 82.048 185.044 82.048C185.529 82.048 185.912 81.9407 186.192 81.726C186.472 81.5113 186.612 81.2407 186.612 80.914C186.612 80.578 186.462 80.3307 186.164 80.172C185.865 80.004 185.403 79.8407 184.778 79.682C184.208 79.5327 183.742 79.3833 183.378 79.234C183.023 79.0753 182.715 78.8467 182.454 78.548C182.202 78.24 182.076 77.8387 182.076 77.344C182.076 76.952 182.192 76.5927 182.426 76.266C182.659 75.9393 182.99 75.6827 183.42 75.496C183.849 75.3 184.339 75.202 184.89 75.202C185.739 75.202 186.425 75.4167 186.948 75.846C187.47 76.2753 187.75 76.8633 187.788 77.61H186.514C186.486 77.2087 186.322 76.8867 186.024 76.644C185.734 76.4013 185.342 76.28 184.848 76.28C184.39 76.28 184.026 76.378 183.756 76.574C183.485 76.77 183.35 77.0267 183.35 77.344C183.35 77.596 183.429 77.806 183.588 77.974C183.756 78.1327 183.961 78.2633 184.204 78.366C184.456 78.4593 184.801 78.5667 185.24 78.688C185.79 78.8373 186.238 78.9867 186.584 79.136C186.929 79.276 187.223 79.4907 187.466 79.78C187.718 80.0693 187.848 80.4473 187.858 80.914C187.858 81.334 187.741 81.712 187.508 82.048C187.274 82.384 186.943 82.65 186.514 82.846C186.094 83.0327 185.608 83.126 185.058 83.126ZM196.656 78.87C196.656 79.1127 196.642 79.3693 196.614 79.64H190.482C190.529 80.396 190.785 80.9887 191.252 81.418C191.728 81.838 192.302 82.048 192.974 82.048C193.525 82.048 193.982 81.922 194.346 81.67C194.719 81.4087 194.981 81.0633 195.13 80.634H196.502C196.297 81.3713 195.886 81.9733 195.27 82.44C194.654 82.8973 193.889 83.126 192.974 83.126C192.246 83.126 191.593 82.9627 191.014 82.636C190.445 82.3093 189.997 81.8473 189.67 81.25C189.343 80.6433 189.18 79.9433 189.18 79.15C189.18 78.3567 189.339 77.6613 189.656 77.064C189.973 76.4667 190.417 76.0093 190.986 75.692C191.565 75.3653 192.227 75.202 192.974 75.202C193.702 75.202 194.346 75.3607 194.906 75.678C195.466 75.9953 195.895 76.434 196.194 76.994C196.502 77.5447 196.656 78.17 196.656 78.87ZM195.34 78.604C195.34 78.1187 195.233 77.7033 195.018 77.358C194.803 77.0033 194.509 76.7373 194.136 76.56C193.772 76.3733 193.366 76.28 192.918 76.28C192.274 76.28 191.723 76.4853 191.266 76.896C190.818 77.3067 190.561 77.876 190.496 78.604H195.34ZM197.862 79.136C197.862 78.352 198.02 77.666 198.338 77.078C198.655 76.4807 199.089 76.0187 199.64 75.692C200.2 75.3653 200.825 75.202 201.516 75.202C202.113 75.202 202.668 75.342 203.182 75.622C203.695 75.8927 204.087 76.252 204.358 76.7V72.64H205.646V83H204.358V81.558C204.106 82.0153 203.732 82.3933 203.238 82.692C202.743 82.9813 202.164 83.126 201.502 83.126C200.82 83.126 200.2 82.958 199.64 82.622C199.089 82.286 198.655 81.8147 198.338 81.208C198.02 80.6013 197.862 79.9107 197.862 79.136ZM204.358 79.15C204.358 78.5713 204.241 78.0673 204.008 77.638C203.774 77.2087 203.457 76.882 203.056 76.658C202.664 76.4247 202.23 76.308 201.754 76.308C201.278 76.308 200.844 76.42 200.452 76.644C200.06 76.868 199.747 77.1947 199.514 77.624C199.28 78.0533 199.164 78.5573 199.164 79.136C199.164 79.724 199.28 80.2373 199.514 80.676C199.747 81.1053 200.06 81.4367 200.452 81.67C200.844 81.894 201.278 82.006 201.754 82.006C202.23 82.006 202.664 81.894 203.056 81.67C203.457 81.4367 203.774 81.1053 204.008 80.676C204.241 80.2373 204.358 79.7287 204.358 79.15ZM213.085 76.378V80.9C213.085 81.2733 213.164 81.5393 213.323 81.698C213.482 81.8473 213.757 81.922 214.149 81.922H215.087V83H213.939C213.23 83 212.698 82.8367 212.343 82.51C211.988 82.1833 211.811 81.6467 211.811 80.9V76.378H210.817V75.328H211.811V73.396H213.085V75.328H215.087V76.378H213.085ZM219.977 83.126C219.258 83.126 218.605 82.9627 218.017 82.636C217.438 82.3093 216.981 81.8473 216.645 81.25C216.318 80.6433 216.155 79.9433 216.155 79.15C216.155 78.366 216.323 77.6753 216.659 77.078C217.004 76.4713 217.471 76.0093 218.059 75.692C218.647 75.3653 219.305 75.202 220.033 75.202C220.761 75.202 221.419 75.3653 222.007 75.692C222.595 76.0093 223.057 76.4667 223.393 77.064C223.738 77.6613 223.911 78.3567 223.911 79.15C223.911 79.9433 223.733 80.6433 223.379 81.25C223.033 81.8473 222.562 82.3093 221.965 82.636C221.367 82.9627 220.705 83.126 219.977 83.126ZM219.977 82.006C220.434 82.006 220.863 81.8987 221.265 81.684C221.666 81.4693 221.988 81.1473 222.231 80.718C222.483 80.2887 222.609 79.766 222.609 79.15C222.609 78.534 222.487 78.0113 222.245 77.582C222.002 77.1527 221.685 76.8353 221.293 76.63C220.901 76.4153 220.476 76.308 220.019 76.308C219.552 76.308 219.123 76.4153 218.731 76.63C218.348 76.8353 218.04 77.1527 217.807 77.582C217.573 78.0113 217.457 78.534 217.457 79.15C217.457 79.7753 217.569 80.3027 217.793 80.732C218.026 81.1613 218.334 81.4833 218.717 81.698C219.099 81.9033 219.519 82.006 219.977 82.006ZM237.382 73.242L233.7 83H232.23L228.548 73.242H229.906L232.972 81.656L236.038 73.242H237.382ZM239.437 74.082C239.195 74.082 238.989 73.998 238.821 73.83C238.653 73.662 238.569 73.4567 238.569 73.214C238.569 72.9713 238.653 72.766 238.821 72.598C238.989 72.43 239.195 72.346 239.437 72.346C239.671 72.346 239.867 72.43 240.025 72.598C240.193 72.766 240.277 72.9713 240.277 73.214C240.277 73.4567 240.193 73.662 240.025 73.83C239.867 73.998 239.671 74.082 239.437 74.082ZM240.053 75.328V83H238.779V75.328H240.053ZM244.94 83.126C244.352 83.126 243.825 83.028 243.358 82.832C242.892 82.6267 242.523 82.3467 242.252 81.992C241.982 81.628 241.832 81.2127 241.804 80.746H243.12C243.158 81.1287 243.335 81.4413 243.652 81.684C243.979 81.9267 244.404 82.048 244.926 82.048C245.412 82.048 245.794 81.9407 246.074 81.726C246.354 81.5113 246.494 81.2407 246.494 80.914C246.494 80.578 246.345 80.3307 246.046 80.172C245.748 80.004 245.286 79.8407 244.66 79.682C244.091 79.5327 243.624 79.3833 243.26 79.234C242.906 79.0753 242.598 78.8467 242.336 78.548C242.084 78.24 241.958 77.8387 241.958 77.344C241.958 76.952 242.075 76.5927 242.308 76.266C242.542 75.9393 242.873 75.6827 243.302 75.496C243.732 75.3 244.222 75.202 244.772 75.202C245.622 75.202 246.308 75.4167 246.83 75.846C247.353 76.2753 247.633 76.8633 247.67 77.61H246.396C246.368 77.2087 246.205 76.8867 245.906 76.644C245.617 76.4013 245.225 76.28 244.73 76.28C244.273 76.28 243.909 76.378 243.638 76.574C243.368 76.77 243.232 77.0267 243.232 77.344C243.232 77.596 243.312 77.806 243.47 77.974C243.638 78.1327 243.844 78.2633 244.086 78.366C244.338 78.4593 244.684 78.5667 245.122 78.688C245.673 78.8373 246.121 78.9867 246.466 79.136C246.812 79.276 247.106 79.4907 247.348 79.78C247.6 80.0693 247.731 80.4473 247.74 80.914C247.74 81.334 247.624 81.712 247.39 82.048C247.157 82.384 246.826 82.65 246.396 82.846C245.976 83.0327 245.491 83.126 244.94 83.126ZM250.197 74.082C249.954 74.082 249.749 73.998 249.581 73.83C249.413 73.662 249.329 73.4567 249.329 73.214C249.329 72.9713 249.413 72.766 249.581 72.598C249.749 72.43 249.954 72.346 250.197 72.346C250.43 72.346 250.626 72.43 250.785 72.598C250.953 72.766 251.037 72.9713 251.037 73.214C251.037 73.4567 250.953 73.662 250.785 73.83C250.626 73.998 250.43 74.082 250.197 74.082ZM250.813 75.328V83H249.539V75.328H250.813ZM254.538 76.378V80.9C254.538 81.2733 254.618 81.5393 254.776 81.698C254.935 81.8473 255.21 81.922 255.602 81.922H256.54V83H255.392C254.683 83 254.151 82.8367 253.796 82.51C253.442 82.1833 253.264 81.6467 253.264 80.9V76.378H252.27V75.328H253.264V73.396H254.538V75.328H256.54V76.378H254.538Z" fill="#99ABB4"/>
<circle cx="201.549" cy="183.549" r="55.6658" transform="rotate(-90 201.549 183.549)" stroke="#EBF2F6" stroke-width="17"/>
<path d="M201.931 247.713C193.505 247.764 185.151 246.154 177.347 242.976C169.543 239.798 162.441 235.114 156.448 229.191C150.454 223.269 145.685 216.223 142.414 208.458C139.143 200.692 137.433 192.359 137.383 183.932L148.932 183.863C148.974 190.773 150.376 197.607 153.058 203.974C155.74 210.342 159.651 216.119 164.566 220.976C169.481 225.832 175.304 229.673 181.703 232.279C188.103 234.885 194.953 236.205 201.862 236.164L201.931 247.713Z" fill="#43CED7"/>
<path d="M201.163 119.384C218.181 119.282 234.542 125.945 246.647 137.906C258.752 149.867 265.61 166.147 265.712 183.165L254.162 183.234C254.079 169.279 248.455 155.93 238.529 146.122C228.603 136.313 215.187 130.85 201.233 130.934L201.163 119.384Z" fill="#1B84FF"/>
<path d="M163.522 131.864C174.436 123.834 187.613 119.465 201.163 119.384L201.233 130.934C190.121 131 179.316 134.582 170.366 141.167L163.522 131.864Z" fill="#6352CE"/>
<path d="M265.712 183.165C265.814 200.182 259.151 216.543 247.19 228.648C235.229 240.754 218.949 247.611 201.931 247.713L201.862 236.164C215.817 236.08 229.166 230.457 238.974 220.53C248.783 210.604 254.246 197.188 254.162 183.234L265.712 183.165Z" fill="#2196F3"/>
<circle cx="53" cy="288.5" r="3" fill="#1B84FF"/>
<path d="M78.682 283.34V293H77.702V285.286L74.258 293H73.544L70.1 285.314V293H69.12V283.34H70.156L73.894 291.712L77.632 283.34H78.682ZM84.2512 293.112C83.5325 293.112 82.8838 292.953 82.3052 292.636C81.7358 292.309 81.2832 291.852 80.9472 291.264C80.6205 290.667 80.4572 289.971 80.4572 289.178C80.4572 288.385 80.6252 287.694 80.9612 287.106C81.2972 286.509 81.7545 286.051 82.3332 285.734C82.9118 285.407 83.5605 285.244 84.2792 285.244C84.9978 285.244 85.6465 285.407 86.2252 285.734C86.8132 286.051 87.2705 286.509 87.5972 287.106C87.9332 287.694 88.1012 288.385 88.1012 289.178C88.1012 289.962 87.9332 290.653 87.5972 291.25C87.2612 291.847 86.7992 292.309 86.2112 292.636C85.6232 292.953 84.9698 293.112 84.2512 293.112ZM84.2512 292.258C84.7552 292.258 85.2218 292.146 85.6512 291.922C86.0805 291.689 86.4258 291.343 86.6872 290.886C86.9578 290.419 87.0932 289.85 87.0932 289.178C87.0932 288.506 86.9625 287.941 86.7012 287.484C86.4398 287.017 86.0945 286.672 85.6652 286.448C85.2358 286.215 84.7692 286.098 84.2652 286.098C83.7612 286.098 83.2945 286.215 82.8652 286.448C82.4358 286.672 82.0905 287.017 81.8292 287.484C81.5772 287.941 81.4512 288.506 81.4512 289.178C81.4512 289.85 81.5772 290.419 81.8292 290.886C82.0905 291.343 82.4312 291.689 82.8512 291.922C83.2805 292.146 83.7472 292.258 84.2512 292.258ZM90.8536 287.05C91.1056 286.518 91.4929 286.084 92.0156 285.748C92.5476 285.412 93.1729 285.244 93.8916 285.244C94.5916 285.244 95.2169 285.407 95.7676 285.734C96.3182 286.051 96.7476 286.509 97.0556 287.106C97.3729 287.694 97.5316 288.38 97.5316 289.164C97.5316 289.948 97.3729 290.639 97.0556 291.236C96.7476 291.833 96.3136 292.295 95.7536 292.622C95.2029 292.949 94.5822 293.112 93.8916 293.112C93.1636 293.112 92.5336 292.949 92.0016 292.622C91.4789 292.286 91.0962 291.852 90.8536 291.32V293H89.8876V282.64H90.8536V287.05ZM96.5376 289.164C96.5376 288.529 96.4116 287.983 96.1596 287.526C95.9169 287.059 95.5809 286.705 95.1516 286.462C94.7222 286.219 94.2369 286.098 93.6956 286.098C93.1729 286.098 92.6922 286.224 92.2536 286.476C91.8242 286.728 91.4836 287.087 91.2316 287.554C90.9796 288.021 90.8536 288.562 90.8536 289.178C90.8536 289.794 90.9796 290.335 91.2316 290.802C91.4836 291.269 91.8242 291.628 92.2536 291.88C92.6922 292.132 93.1729 292.258 93.6956 292.258C94.2369 292.258 94.7222 292.137 95.1516 291.894C95.5809 291.642 95.9169 291.283 96.1596 290.816C96.4116 290.34 96.5376 289.789 96.5376 289.164ZM99.8248 283.914C99.6288 283.914 99.4608 283.844 99.3208 283.704C99.1808 283.564 99.1108 283.391 99.1108 283.186C99.1108 282.981 99.1808 282.813 99.3208 282.682C99.4608 282.542 99.6288 282.472 99.8248 282.472C100.021 282.472 100.189 282.542 100.329 282.682C100.469 282.813 100.539 282.981 100.539 283.186C100.539 283.391 100.469 283.564 100.329 283.704C100.189 283.844 100.021 283.914 99.8248 283.914ZM100.315 285.356V293H99.3348V285.356H100.315ZM103.514 282.64V293H102.534V282.64H103.514ZM112.649 288.786C112.649 289.122 112.64 289.379 112.621 289.556H106.279C106.307 290.135 106.447 290.629 106.699 291.04C106.951 291.451 107.283 291.763 107.693 291.978C108.104 292.183 108.552 292.286 109.037 292.286C109.672 292.286 110.204 292.132 110.633 291.824C111.072 291.516 111.361 291.101 111.501 290.578H112.537C112.351 291.325 111.949 291.936 111.333 292.412C110.727 292.879 109.961 293.112 109.037 293.112C108.319 293.112 107.675 292.953 107.105 292.636C106.536 292.309 106.088 291.852 105.761 291.264C105.444 290.667 105.285 289.971 105.285 289.178C105.285 288.385 105.444 287.689 105.761 287.092C106.079 286.495 106.522 286.037 107.091 285.72C107.661 285.403 108.309 285.244 109.037 285.244C109.765 285.244 110.4 285.403 110.941 285.72C111.492 286.037 111.912 286.467 112.201 287.008C112.5 287.54 112.649 288.133 112.649 288.786ZM111.655 288.758C111.665 288.189 111.548 287.703 111.305 287.302C111.072 286.901 110.75 286.597 110.339 286.392C109.929 286.187 109.481 286.084 108.995 286.084C108.267 286.084 107.647 286.317 107.133 286.784C106.62 287.251 106.335 287.909 106.279 288.758H111.655Z" fill="#1B84FF"/>
<circle cx="164" cy="288.5" r="3" fill="#6352CE"/>
<path d="M183.018 283.214C184.101 283.214 185.029 283.41 185.804 283.802C186.579 284.194 187.171 284.759 187.582 285.496C187.993 286.233 188.198 287.111 188.198 288.128C188.198 289.136 187.993 290.009 187.582 290.746C187.171 291.474 186.579 292.034 185.804 292.426C185.029 292.809 184.101 293 183.018 293H180.12V283.214H183.018ZM183.018 292.188C184.381 292.188 185.417 291.833 186.126 291.124C186.845 290.405 187.204 289.407 187.204 288.128C187.204 286.84 186.845 285.837 186.126 285.118C185.417 284.39 184.381 284.026 183.018 284.026H181.1V292.188H183.018ZM196.921 288.786C196.921 289.122 196.911 289.379 196.893 289.556H190.551C190.579 290.135 190.719 290.629 190.971 291.04C191.223 291.451 191.554 291.763 191.965 291.978C192.375 292.183 192.823 292.286 193.309 292.286C193.943 292.286 194.475 292.132 194.905 291.824C195.343 291.516 195.633 291.101 195.773 290.578H196.809C196.622 291.325 196.221 291.936 195.605 292.412C194.998 292.879 194.233 293.112 193.309 293.112C192.59 293.112 191.946 292.953 191.377 292.636C190.807 292.309 190.359 291.852 190.033 291.264C189.715 290.667 189.557 289.971 189.557 289.178C189.557 288.385 189.715 287.689 190.033 287.092C190.35 286.495 190.793 286.037 191.363 285.72C191.932 285.403 192.581 285.244 193.309 285.244C194.037 285.244 194.671 285.403 195.213 285.72C195.763 286.037 196.183 286.467 196.473 287.008C196.771 287.54 196.921 288.133 196.921 288.786ZM195.927 288.758C195.936 288.189 195.819 287.703 195.577 287.302C195.343 286.901 195.021 286.597 194.611 286.392C194.2 286.187 193.752 286.084 193.267 286.084C192.539 286.084 191.918 286.317 191.405 286.784C190.891 287.251 190.607 287.909 190.551 288.758H195.927ZM201.346 293.112C200.468 293.112 199.75 292.911 199.19 292.51C198.639 292.099 198.331 291.544 198.266 290.844H199.274C199.32 291.273 199.521 291.623 199.876 291.894C200.24 292.155 200.725 292.286 201.332 292.286C201.864 292.286 202.279 292.16 202.578 291.908C202.886 291.656 203.04 291.343 203.04 290.97C203.04 290.709 202.956 290.494 202.788 290.326C202.62 290.158 202.405 290.027 202.144 289.934C201.892 289.831 201.546 289.724 201.108 289.612C200.538 289.463 200.076 289.313 199.722 289.164C199.367 289.015 199.064 288.795 198.812 288.506C198.569 288.207 198.448 287.811 198.448 287.316C198.448 286.943 198.56 286.597 198.784 286.28C199.008 285.963 199.325 285.711 199.736 285.524C200.146 285.337 200.613 285.244 201.136 285.244C201.957 285.244 202.62 285.454 203.124 285.874C203.628 286.285 203.898 286.854 203.936 287.582H202.956C202.928 287.134 202.75 286.775 202.424 286.504C202.106 286.224 201.668 286.084 201.108 286.084C200.613 286.084 200.212 286.201 199.904 286.434C199.596 286.667 199.442 286.957 199.442 287.302C199.442 287.601 199.53 287.848 199.708 288.044C199.894 288.231 200.123 288.38 200.394 288.492C200.664 288.595 201.028 288.711 201.486 288.842C202.036 288.991 202.475 289.136 202.802 289.276C203.128 289.416 203.408 289.621 203.642 289.892C203.875 290.163 203.996 290.522 204.006 290.97C204.006 291.381 203.894 291.749 203.67 292.076C203.446 292.393 203.133 292.645 202.732 292.832C202.33 293.019 201.868 293.112 201.346 293.112ZM209.98 293L206.83 289.57V293H205.85V282.64H206.83V288.772L209.91 285.356H211.282L207.656 289.164L211.31 293H209.98ZM213.851 286.182V290.928C213.851 291.395 213.94 291.717 214.117 291.894C214.294 292.071 214.607 292.16 215.055 292.16H215.951V293H214.901C214.21 293 213.697 292.841 213.361 292.524C213.025 292.197 212.857 291.665 212.857 290.928V286.182H211.793V285.356H212.857V283.438H213.851V285.356H215.951V286.182H213.851ZM220.913 293.112C220.195 293.112 219.546 292.953 218.967 292.636C218.398 292.309 217.945 291.852 217.609 291.264C217.283 290.667 217.119 289.971 217.119 289.178C217.119 288.385 217.287 287.694 217.623 287.106C217.959 286.509 218.417 286.051 218.995 285.734C219.574 285.407 220.223 285.244 220.941 285.244C221.66 285.244 222.309 285.407 222.887 285.734C223.475 286.051 223.933 286.509 224.259 287.106C224.595 287.694 224.763 288.385 224.763 289.178C224.763 289.962 224.595 290.653 224.259 291.25C223.923 291.847 223.461 292.309 222.873 292.636C222.285 292.953 221.632 293.112 220.913 293.112ZM220.913 292.258C221.417 292.258 221.884 292.146 222.313 291.922C222.743 291.689 223.088 291.343 223.349 290.886C223.62 290.419 223.755 289.85 223.755 289.178C223.755 288.506 223.625 287.941 223.363 287.484C223.102 287.017 222.757 286.672 222.327 286.448C221.898 286.215 221.431 286.098 220.927 286.098C220.423 286.098 219.957 286.215 219.527 286.448C219.098 286.672 218.753 287.017 218.491 287.484C218.239 287.941 218.113 288.506 218.113 289.178C218.113 289.85 218.239 290.419 218.491 290.886C218.753 291.343 219.093 291.689 219.513 291.922C219.943 292.146 220.409 292.258 220.913 292.258ZM227.516 287.036C227.758 286.523 228.141 286.098 228.664 285.762C229.196 285.417 229.826 285.244 230.554 285.244C231.244 285.244 231.865 285.407 232.416 285.734C232.976 286.051 233.41 286.509 233.718 287.106C234.035 287.694 234.194 288.38 234.194 289.164C234.194 289.948 234.035 290.639 233.718 291.236C233.41 291.833 232.976 292.295 232.416 292.622C231.865 292.949 231.244 293.112 230.554 293.112C229.835 293.112 229.21 292.944 228.678 292.608C228.146 292.263 227.758 291.833 227.516 291.32V296.612H226.55V285.356H227.516V287.036ZM233.2 289.164C233.2 288.529 233.074 287.983 232.822 287.526C232.579 287.059 232.243 286.705 231.814 286.462C231.384 286.219 230.899 286.098 230.358 286.098C229.835 286.098 229.354 286.224 228.916 286.476C228.486 286.728 228.146 287.087 227.894 287.554C227.642 288.021 227.516 288.562 227.516 289.178C227.516 289.794 227.642 290.335 227.894 290.802C228.146 291.269 228.486 291.628 228.916 291.88C229.354 292.132 229.835 292.258 230.358 292.258C230.899 292.258 231.384 292.137 231.814 291.894C232.243 291.642 232.579 291.283 232.822 290.816C233.074 290.34 233.2 289.789 233.2 289.164Z" fill="#6352CE"/>
<circle cx="275" cy="288.5" r="3" fill="#43CED7"/>
<path d="M296.846 283.214V284.026H294.13V293H293.15V284.026H290.42V283.214H296.846ZM297.945 289.164C297.945 288.38 298.099 287.694 298.407 287.106C298.725 286.509 299.159 286.051 299.709 285.734C300.269 285.407 300.899 285.244 301.599 285.244C302.327 285.244 302.953 285.412 303.475 285.748C304.007 286.084 304.39 286.513 304.623 287.036V285.356H305.603V293H304.623V291.306C304.381 291.829 303.993 292.263 303.461 292.608C302.939 292.944 302.313 293.112 301.585 293.112C300.895 293.112 300.269 292.949 299.709 292.622C299.159 292.295 298.725 291.833 298.407 291.236C298.099 290.639 297.945 289.948 297.945 289.164ZM304.623 289.178C304.623 288.562 304.497 288.021 304.245 287.554C303.993 287.087 303.648 286.728 303.209 286.476C302.78 286.224 302.304 286.098 301.781 286.098C301.24 286.098 300.755 286.219 300.325 286.462C299.896 286.705 299.555 287.059 299.303 287.526C299.061 287.983 298.939 288.529 298.939 289.164C298.939 289.789 299.061 290.34 299.303 290.816C299.555 291.283 299.896 291.642 300.325 291.894C300.755 292.137 301.24 292.258 301.781 292.258C302.304 292.258 302.78 292.132 303.209 291.88C303.648 291.628 303.993 291.269 304.245 290.802C304.497 290.335 304.623 289.794 304.623 289.178ZM308.807 287.05C309.059 286.518 309.446 286.084 309.969 285.748C310.501 285.412 311.126 285.244 311.845 285.244C312.545 285.244 313.17 285.407 313.721 285.734C314.271 286.051 314.701 286.509 315.009 287.106C315.326 287.694 315.485 288.38 315.485 289.164C315.485 289.948 315.326 290.639 315.009 291.236C314.701 291.833 314.267 292.295 313.707 292.622C313.156 292.949 312.535 293.112 311.845 293.112C311.117 293.112 310.487 292.949 309.955 292.622C309.432 292.286 309.049 291.852 308.807 291.32V293H307.841V282.64H308.807V287.05ZM314.491 289.164C314.491 288.529 314.365 287.983 314.113 287.526C313.87 287.059 313.534 286.705 313.105 286.462C312.675 286.219 312.19 286.098 311.649 286.098C311.126 286.098 310.645 286.224 310.207 286.476C309.777 286.728 309.437 287.087 309.185 287.554C308.933 288.021 308.807 288.562 308.807 289.178C308.807 289.794 308.933 290.335 309.185 290.802C309.437 291.269 309.777 291.628 310.207 291.88C310.645 292.132 311.126 292.258 311.649 292.258C312.19 292.258 312.675 292.137 313.105 291.894C313.534 291.642 313.87 291.283 314.113 290.816C314.365 290.34 314.491 289.789 314.491 289.164ZM318.268 282.64V293H317.288V282.64H318.268ZM327.403 288.786C327.403 289.122 327.394 289.379 327.375 289.556H321.033C321.061 290.135 321.201 290.629 321.453 291.04C321.705 291.451 322.037 291.763 322.447 291.978C322.858 292.183 323.306 292.286 323.791 292.286C324.426 292.286 324.958 292.132 325.387 291.824C325.826 291.516 326.115 291.101 326.255 290.578H327.291C327.105 291.325 326.703 291.936 326.087 292.412C325.481 292.879 324.715 293.112 323.791 293.112C323.073 293.112 322.429 292.953 321.859 292.636C321.29 292.309 320.842 291.852 320.515 291.264C320.198 290.667 320.039 289.971 320.039 289.178C320.039 288.385 320.198 287.689 320.515 287.092C320.833 286.495 321.276 286.037 321.845 285.72C322.415 285.403 323.063 285.244 323.791 285.244C324.519 285.244 325.154 285.403 325.695 285.72C326.246 286.037 326.666 286.467 326.955 287.008C327.254 287.54 327.403 288.133 327.403 288.786ZM326.409 288.758C326.419 288.189 326.302 287.703 326.059 287.302C325.826 286.901 325.504 286.597 325.093 286.392C324.683 286.187 324.235 286.084 323.749 286.084C323.021 286.084 322.401 286.317 321.887 286.784C321.374 287.251 321.089 287.909 321.033 288.758H326.409ZM330.47 286.182V290.928C330.47 291.395 330.559 291.717 330.736 291.894C330.914 292.071 331.226 292.16 331.674 292.16H332.57V293H331.52C330.83 293 330.316 292.841 329.98 292.524C329.644 292.197 329.476 291.665 329.476 290.928V286.182H328.412V285.356H329.476V283.438H330.47V285.356H332.57V286.182H330.47ZM336.818 293.112C335.941 293.112 335.222 292.911 334.662 292.51C334.112 292.099 333.804 291.544 333.738 290.844H334.746C334.793 291.273 334.994 291.623 335.348 291.894C335.712 292.155 336.198 292.286 336.804 292.286C337.336 292.286 337.752 292.16 338.05 291.908C338.358 291.656 338.512 291.343 338.512 290.97C338.512 290.709 338.428 290.494 338.26 290.326C338.092 290.158 337.878 290.027 337.616 289.934C337.364 289.831 337.019 289.724 336.58 289.612C336.011 289.463 335.549 289.313 335.194 289.164C334.84 289.015 334.536 288.795 334.284 288.506C334.042 288.207 333.92 287.811 333.92 287.316C333.92 286.943 334.032 286.597 334.256 286.28C334.48 285.963 334.798 285.711 335.208 285.524C335.619 285.337 336.086 285.244 336.608 285.244C337.43 285.244 338.092 285.454 338.596 285.874C339.1 286.285 339.371 286.854 339.408 287.582H338.428C338.4 287.134 338.223 286.775 337.896 286.504C337.579 286.224 337.14 286.084 336.58 286.084C336.086 286.084 335.684 286.201 335.376 286.434C335.068 286.667 334.914 286.957 334.914 287.302C334.914 287.601 335.003 287.848 335.18 288.044C335.367 288.231 335.596 288.38 335.866 288.492C336.137 288.595 336.501 288.711 336.958 288.842C337.509 288.991 337.948 289.136 338.274 289.276C338.601 289.416 338.881 289.621 339.114 289.892C339.348 290.163 339.469 290.522 339.478 290.97C339.478 291.381 339.366 291.749 339.142 292.076C338.918 292.393 338.606 292.645 338.204 292.832C337.803 293.019 337.341 293.112 336.818 293.112Z" fill="#43CED7"/>
</g>
<g filter="url(#filter1_dd_899_2579)">
<rect x="20" y="359" width="363" height="205" rx="10" fill="#725AF2"/>
<rect x="50" y="389" width="48" height="48" rx="24" fill="black" fill-opacity="0.1"/>
<path d="M69.5635 407.719C69.2241 407.719 68.9375 407.835 68.7036 408.066C68.4697 408.297 68.3528 408.577 68.3528 408.907C68.3528 409.247 68.4691 409.533 68.7016 409.767C68.9341 410.001 69.2189 410.118 69.5559 410.118C69.8929 410.118 70.1765 410.002 70.4066 409.769C70.6367 409.537 70.7518 409.252 70.7518 408.915C70.7518 408.578 70.6363 408.294 70.4052 408.064C70.1742 407.834 69.8936 407.719 69.5635 407.719ZM69.5635 416.881C69.2241 416.881 68.9375 416.998 68.7036 417.23C68.4697 417.463 68.3528 417.748 68.3528 418.085C68.3528 418.422 68.4691 418.705 68.7016 418.935C68.9341 419.165 69.2189 419.28 69.5559 419.28C69.8929 419.28 70.1765 419.165 70.4066 418.934C70.6367 418.703 70.7518 418.422 70.7518 418.092C70.7518 417.753 70.6363 417.466 70.4052 417.232C70.1742 416.998 69.8936 416.881 69.5635 416.881ZM66.548 405.05H81.4556C81.6928 405.05 81.8962 405.13 82.0657 405.291C82.2353 405.452 82.32 405.651 82.32 405.889V411.865C82.32 412.137 82.2353 412.359 82.0657 412.53C81.8962 412.702 81.6928 412.787 81.4556 412.787H66.548C66.3108 412.787 66.1075 412.701 65.9379 412.53C65.7684 412.358 65.6836 412.136 65.6836 411.863V405.89C65.6836 405.652 65.7684 405.453 65.9379 405.291C66.1075 405.13 66.3108 405.05 66.548 405.05ZM67.0826 406.449V411.388H80.921V406.449H67.0826ZM66.548 414.212H81.4364C81.6871 414.212 81.897 414.301 82.0662 414.478C82.2354 414.655 82.32 414.867 82.32 415.114V421.008C82.32 421.293 82.2354 421.521 82.0662 421.693C81.897 421.864 81.6871 421.95 81.4364 421.95H66.5672C66.3166 421.95 66.1067 421.864 65.9374 421.692C65.7682 421.52 65.6836 421.291 65.6836 421.006V415.115C65.6836 414.867 65.765 414.655 65.9278 414.478C66.0906 414.301 66.2974 414.212 66.548 414.212ZM67.0826 415.611V420.551H80.921V415.611H67.0826Z" fill="white"/>
<path d="M118.046 402.574C118.718 402.694 119.288 403.048 119.756 403.636C120.224 404.224 120.458 404.89 120.458 405.634C120.458 406.27 120.29 406.846 119.954 407.362C119.63 407.866 119.156 408.268 118.532 408.568C117.908 408.856 117.182 409 116.354 409H111.35V396.49H116.12C116.972 396.49 117.704 396.634 118.316 396.922C118.928 397.21 119.39 397.6 119.702 398.092C120.014 398.572 120.17 399.112 120.17 399.712C120.17 400.432 119.978 401.032 119.594 401.512C119.21 401.992 118.694 402.346 118.046 402.574ZM113.402 401.746H115.94C116.612 401.746 117.134 401.596 117.506 401.296C117.89 400.984 118.082 400.54 118.082 399.964C118.082 399.4 117.89 398.962 117.506 398.65C117.134 398.326 116.612 398.164 115.94 398.164H113.402V401.746ZM116.174 407.326C116.87 407.326 117.416 407.158 117.812 406.822C118.208 406.486 118.406 406.018 118.406 405.418C118.406 404.806 118.196 404.32 117.776 403.96C117.356 403.6 116.798 403.42 116.102 403.42H113.402V407.326H116.174ZM122.004 403.996C122.004 403 122.208 402.118 122.616 401.35C123.036 400.582 123.6 399.988 124.308 399.568C125.028 399.136 125.82 398.92 126.684 398.92C127.464 398.92 128.142 399.076 128.718 399.388C129.306 399.688 129.774 400.066 130.122 400.522V399.082H132.192V409H130.122V407.524C129.774 407.992 129.3 408.382 128.7 408.694C128.1 409.006 127.416 409.162 126.648 409.162C125.796 409.162 125.016 408.946 124.308 408.514C123.6 408.07 123.036 407.458 122.616 406.678C122.208 405.886 122.004 404.992 122.004 403.996ZM130.122 404.032C130.122 403.348 129.978 402.754 129.69 402.25C129.414 401.746 129.048 401.362 128.592 401.098C128.136 400.834 127.644 400.702 127.116 400.702C126.588 400.702 126.096 400.834 125.64 401.098C125.184 401.35 124.812 401.728 124.524 402.232C124.248 402.724 124.11 403.312 124.11 403.996C124.11 404.68 124.248 405.28 124.524 405.796C124.812 406.312 125.184 406.708 125.64 406.984C126.108 407.248 126.6 407.38 127.116 407.38C127.644 407.38 128.136 407.248 128.592 406.984C129.048 406.72 129.414 406.336 129.69 405.832C129.978 405.316 130.122 404.716 130.122 404.032ZM139.891 398.92C140.671 398.92 141.367 399.082 141.979 399.406C142.603 399.73 143.089 400.21 143.437 400.846C143.785 401.482 143.959 402.25 143.959 403.15V409H141.925V403.456C141.925 402.568 141.703 401.89 141.259 401.422C140.815 400.942 140.209 400.702 139.441 400.702C138.673 400.702 138.061 400.942 137.605 401.422C137.161 401.89 136.939 402.568 136.939 403.456V409H134.887V399.082H136.939V400.216C137.275 399.808 137.701 399.49 138.217 399.262C138.745 399.034 139.303 398.92 139.891 398.92ZM145.893 403.996C145.893 403 146.097 402.118 146.505 401.35C146.925 400.582 147.489 399.988 148.197 399.568C148.917 399.136 149.715 398.92 150.591 398.92C151.239 398.92 151.875 399.064 152.499 399.352C153.135 399.628 153.639 400 154.011 400.468V395.68H156.081V409H154.011V407.506C153.675 407.986 153.207 408.382 152.607 408.694C152.019 409.006 151.341 409.162 150.573 409.162C149.709 409.162 148.917 408.946 148.197 408.514C147.489 408.07 146.925 407.458 146.505 406.678C146.097 405.886 145.893 404.992 145.893 403.996ZM154.011 404.032C154.011 403.348 153.867 402.754 153.579 402.25C153.303 401.746 152.937 401.362 152.481 401.098C152.025 400.834 151.533 400.702 151.005 400.702C150.477 400.702 149.985 400.834 149.529 401.098C149.073 401.35 148.701 401.728 148.413 402.232C148.137 402.724 147.999 403.312 147.999 403.996C147.999 404.68 148.137 405.28 148.413 405.796C148.701 406.312 149.073 406.708 149.529 406.984C149.997 407.248 150.489 407.38 151.005 407.38C151.533 407.38 152.025 407.248 152.481 406.984C152.937 406.72 153.303 406.336 153.579 405.832C153.867 405.316 154.011 404.716 154.011 404.032ZM172.096 399.082L169.018 409H166.858L164.86 401.674L162.862 409H160.702L157.606 399.082H159.694L161.764 407.056L163.87 399.082H166.012L168.028 407.02L170.08 399.082H172.096ZM174.673 397.768C174.301 397.768 173.989 397.642 173.737 397.39C173.485 397.138 173.359 396.826 173.359 396.454C173.359 396.082 173.485 395.77 173.737 395.518C173.989 395.266 174.301 395.14 174.673 395.14C175.033 395.14 175.339 395.266 175.591 395.518C175.843 395.77 175.969 396.082 175.969 396.454C175.969 396.826 175.843 397.138 175.591 397.39C175.339 397.642 175.033 397.768 174.673 397.768ZM175.681 399.082V409H173.629V399.082H175.681ZM177.691 403.996C177.691 403 177.895 402.118 178.303 401.35C178.723 400.582 179.287 399.988 179.995 399.568C180.715 399.136 181.513 398.92 182.389 398.92C183.037 398.92 183.673 399.064 184.297 399.352C184.933 399.628 185.437 400 185.809 400.468V395.68H187.879V409H185.809V407.506C185.473 407.986 185.005 408.382 184.405 408.694C183.817 409.006 183.139 409.162 182.371 409.162C181.507 409.162 180.715 408.946 179.995 408.514C179.287 408.07 178.723 407.458 178.303 406.678C177.895 405.886 177.691 404.992 177.691 403.996ZM185.809 404.032C185.809 403.348 185.665 402.754 185.377 402.25C185.101 401.746 184.735 401.362 184.279 401.098C183.823 400.834 183.331 400.702 182.803 400.702C182.275 400.702 181.783 400.834 181.327 401.098C180.871 401.35 180.499 401.728 180.211 402.232C179.935 402.724 179.797 403.312 179.797 403.996C179.797 404.68 179.935 405.28 180.211 405.796C180.499 406.312 180.871 406.708 181.327 406.984C181.795 407.248 182.287 407.38 182.803 407.38C183.331 407.38 183.823 407.248 184.279 406.984C184.735 406.72 185.101 406.336 185.377 405.832C185.665 405.316 185.809 404.716 185.809 404.032ZM192.969 400.756V406.246C192.969 406.618 193.053 406.888 193.221 407.056C193.401 407.212 193.701 407.29 194.121 407.29H195.381V409H193.761C192.837 409 192.129 408.784 191.637 408.352C191.145 407.92 190.899 407.218 190.899 406.246V400.756H189.729V399.082H190.899V396.616H192.969V399.082H195.381V400.756H192.969ZM202.402 398.92C203.158 398.92 203.83 399.082 204.418 399.406C205.018 399.73 205.486 400.21 205.822 400.846C206.17 401.482 206.344 402.25 206.344 403.15V409H204.31V403.456C204.31 402.568 204.088 401.89 203.644 401.422C203.2 400.942 202.594 400.702 201.826 400.702C201.058 400.702 200.446 400.942 199.99 401.422C199.546 401.89 199.324 402.568 199.324 403.456V409H197.272V395.68H199.324V400.234C199.672 399.814 200.11 399.49 200.638 399.262C201.178 399.034 201.766 398.92 202.402 398.92ZM222.619 399.082V409H220.567V407.83C220.243 408.238 219.817 408.562 219.289 408.802C218.773 409.03 218.221 409.144 217.633 409.144C216.853 409.144 216.151 408.982 215.527 408.658C214.915 408.334 214.429 407.854 214.069 407.218C213.721 406.582 213.547 405.814 213.547 404.914V399.082H215.581V404.608C215.581 405.496 215.803 406.18 216.247 406.66C216.691 407.128 217.297 407.362 218.065 407.362C218.833 407.362 219.439 407.128 219.883 406.66C220.339 406.18 220.567 405.496 220.567 404.608V399.082H222.619ZM228.927 409.162C228.147 409.162 227.445 409.024 226.821 408.748C226.209 408.46 225.723 408.076 225.363 407.596C225.003 407.104 224.811 406.558 224.787 405.958H226.911C226.947 406.378 227.145 406.732 227.505 407.02C227.877 407.296 228.339 407.434 228.891 407.434C229.467 407.434 229.911 407.326 230.223 407.11C230.547 406.882 230.709 406.594 230.709 406.246C230.709 405.874 230.529 405.598 230.169 405.418C229.821 405.238 229.263 405.04 228.495 404.824C227.751 404.62 227.145 404.422 226.677 404.23C226.209 404.038 225.801 403.744 225.453 403.348C225.117 402.952 224.949 402.43 224.949 401.782C224.949 401.254 225.105 400.774 225.417 400.342C225.729 399.898 226.173 399.55 226.749 399.298C227.337 399.046 228.009 398.92 228.765 398.92C229.893 398.92 230.799 399.208 231.483 399.784C232.179 400.348 232.551 401.122 232.599 402.106H230.547C230.511 401.662 230.331 401.308 230.007 401.044C229.683 400.78 229.245 400.648 228.693 400.648C228.153 400.648 227.739 400.75 227.451 400.954C227.163 401.158 227.019 401.428 227.019 401.764C227.019 402.028 227.115 402.25 227.307 402.43C227.499 402.61 227.733 402.754 228.009 402.862C228.285 402.958 228.693 403.084 229.233 403.24C229.953 403.432 230.541 403.63 230.997 403.834C231.465 404.026 231.867 404.314 232.203 404.698C232.539 405.082 232.713 405.592 232.725 406.228C232.725 406.792 232.569 407.296 232.257 407.74C231.945 408.184 231.501 408.532 230.925 408.784C230.361 409.036 229.695 409.162 228.927 409.162ZM234.258 403.996C234.258 403 234.462 402.118 234.87 401.35C235.29 400.582 235.854 399.988 236.562 399.568C237.282 399.136 238.074 398.92 238.938 398.92C239.718 398.92 240.396 399.076 240.972 399.388C241.56 399.688 242.028 400.066 242.376 400.522V399.082H244.446V409H242.376V407.524C242.028 407.992 241.554 408.382 240.954 408.694C240.354 409.006 239.67 409.162 238.902 409.162C238.05 409.162 237.27 408.946 236.562 408.514C235.854 408.07 235.29 407.458 234.87 406.678C234.462 405.886 234.258 404.992 234.258 403.996ZM242.376 404.032C242.376 403.348 242.232 402.754 241.944 402.25C241.668 401.746 241.302 401.362 240.846 401.098C240.39 400.834 239.898 400.702 239.37 400.702C238.842 400.702 238.35 400.834 237.894 401.098C237.438 401.35 237.066 401.728 236.778 402.232C236.502 402.724 236.364 403.312 236.364 403.996C236.364 404.68 236.502 405.28 236.778 405.796C237.066 406.312 237.438 406.708 237.894 406.984C238.362 407.248 238.854 407.38 239.37 407.38C239.898 407.38 240.39 407.248 240.846 406.984C241.302 406.72 241.668 406.336 241.944 405.832C242.232 405.316 242.376 404.716 242.376 404.032ZM251.137 398.92C251.905 398.92 252.583 399.076 253.171 399.388C253.771 399.688 254.239 400.066 254.575 400.522V399.082H256.645V409.162C256.645 410.074 256.453 410.884 256.069 411.592C255.685 412.312 255.127 412.876 254.395 413.284C253.675 413.692 252.811 413.896 251.803 413.896C250.459 413.896 249.343 413.578 248.455 412.942C247.567 412.318 247.063 411.466 246.943 410.386H248.977C249.133 410.902 249.463 411.316 249.967 411.628C250.483 411.952 251.095 412.114 251.803 412.114C252.631 412.114 253.297 411.862 253.801 411.358C254.317 410.854 254.575 410.122 254.575 409.162V407.506C254.227 407.974 253.753 408.37 253.153 408.694C252.565 409.006 251.893 409.162 251.137 409.162C250.273 409.162 249.481 408.946 248.761 408.514C248.053 408.07 247.489 407.458 247.069 406.678C246.661 405.886 246.457 404.992 246.457 403.996C246.457 403 246.661 402.118 247.069 401.35C247.489 400.582 248.053 399.988 248.761 399.568C249.481 399.136 250.273 398.92 251.137 398.92ZM254.575 404.032C254.575 403.348 254.431 402.754 254.143 402.25C253.867 401.746 253.501 401.362 253.045 401.098C252.589 400.834 252.097 400.702 251.569 400.702C251.041 400.702 250.549 400.834 250.093 401.098C249.637 401.35 249.265 401.728 248.977 402.232C248.701 402.724 248.563 403.312 248.563 403.996C248.563 404.68 248.701 405.28 248.977 405.796C249.265 406.312 249.637 406.708 250.093 406.984C250.561 407.248 251.053 407.38 251.569 407.38C252.097 407.38 252.589 407.248 253.045 406.984C253.501 406.72 253.867 406.336 254.143 405.832C254.431 405.316 254.575 404.716 254.575 404.032ZM268.43 403.798C268.43 404.17 268.406 404.506 268.358 404.806H260.78C260.84 405.598 261.134 406.234 261.662 406.714C262.19 407.194 262.838 407.434 263.606 407.434C264.71 407.434 265.49 406.972 265.946 406.048H268.16C267.86 406.96 267.314 407.71 266.522 408.298C265.742 408.874 264.77 409.162 263.606 409.162C262.658 409.162 261.806 408.952 261.05 408.532C260.306 408.1 259.718 407.5 259.286 406.732C258.866 405.952 258.656 405.052 258.656 404.032C258.656 403.012 258.86 402.118 259.268 401.35C259.688 400.57 260.27 399.97 261.014 399.55C261.77 399.13 262.634 398.92 263.606 398.92C264.542 398.92 265.376 399.124 266.108 399.532C266.84 399.94 267.41 400.516 267.818 401.26C268.226 401.992 268.43 402.838 268.43 403.798ZM266.288 403.15C266.276 402.394 266.006 401.788 265.478 401.332C264.95 400.876 264.296 400.648 263.516 400.648C262.808 400.648 262.202 400.876 261.698 401.332C261.194 401.776 260.894 402.382 260.798 403.15H266.288Z" fill="white"/>
<path opacity="0.7" d="M120.976 421.312V431H119.702V423.776L116.482 431H115.586L112.352 423.762V431H111.078V421.312H112.45L116.034 429.32L119.618 421.312H120.976ZM122.661 427.136C122.661 426.352 122.819 425.666 123.137 425.078C123.454 424.481 123.888 424.019 124.439 423.692C124.999 423.365 125.619 423.202 126.301 423.202C126.973 423.202 127.556 423.347 128.051 423.636C128.545 423.925 128.914 424.289 129.157 424.728V423.328H130.445V431H129.157V429.572C128.905 430.02 128.527 430.393 128.023 430.692C127.528 430.981 126.949 431.126 126.287 431.126C125.605 431.126 124.989 430.958 124.439 430.622C123.888 430.286 123.454 429.815 123.137 429.208C122.819 428.601 122.661 427.911 122.661 427.136ZM129.157 427.15C129.157 426.571 129.04 426.067 128.807 425.638C128.573 425.209 128.256 424.882 127.855 424.658C127.463 424.425 127.029 424.308 126.553 424.308C126.077 424.308 125.643 424.42 125.251 424.644C124.859 424.868 124.546 425.195 124.313 425.624C124.079 426.053 123.963 426.557 123.963 427.136C123.963 427.724 124.079 428.237 124.313 428.676C124.546 429.105 124.859 429.437 125.251 429.67C125.643 429.894 126.077 430.006 126.553 430.006C127.029 430.006 127.463 429.894 127.855 429.67C128.256 429.437 128.573 429.105 128.807 428.676C129.04 428.237 129.157 427.729 129.157 427.15ZM133.872 424.574C134.096 424.135 134.413 423.795 134.824 423.552C135.244 423.309 135.752 423.188 136.35 423.188V424.504H136.014C134.586 424.504 133.872 425.279 133.872 426.828V431H132.598V423.328H133.872V424.574ZM137.344 427.15C137.344 426.357 137.503 425.666 137.82 425.078C138.138 424.481 138.576 424.019 139.136 423.692C139.706 423.365 140.354 423.202 141.082 423.202C142.025 423.202 142.8 423.431 143.406 423.888C144.022 424.345 144.428 424.98 144.624 425.792H143.252C143.122 425.325 142.865 424.957 142.482 424.686C142.109 424.415 141.642 424.28 141.082 424.28C140.354 424.28 139.766 424.532 139.318 425.036C138.87 425.531 138.646 426.235 138.646 427.15C138.646 428.074 138.87 428.788 139.318 429.292C139.766 429.796 140.354 430.048 141.082 430.048C141.642 430.048 142.109 429.917 142.482 429.656C142.856 429.395 143.112 429.021 143.252 428.536H144.624C144.419 429.32 144.008 429.95 143.392 430.426C142.776 430.893 142.006 431.126 141.082 431.126C140.354 431.126 139.706 430.963 139.136 430.636C138.576 430.309 138.138 429.847 137.82 429.25C137.503 428.653 137.344 427.953 137.344 427.15ZM150.132 423.188C150.711 423.188 151.233 423.314 151.7 423.566C152.167 423.809 152.531 424.177 152.792 424.672C153.063 425.167 153.198 425.769 153.198 426.478V431H151.938V426.66C151.938 425.895 151.747 425.311 151.364 424.91C150.981 424.499 150.459 424.294 149.796 424.294C149.124 424.294 148.587 424.504 148.186 424.924C147.794 425.344 147.598 425.955 147.598 426.758V431H146.324V420.64H147.598V424.42C147.85 424.028 148.195 423.725 148.634 423.51C149.082 423.295 149.581 423.188 150.132 423.188ZM158.648 429.978C159.833 429.026 160.762 428.247 161.434 427.64C162.106 427.024 162.67 426.385 163.128 425.722C163.594 425.05 163.828 424.392 163.828 423.748C163.828 423.141 163.678 422.665 163.38 422.32C163.09 421.965 162.619 421.788 161.966 421.788C161.331 421.788 160.836 421.989 160.482 422.39C160.136 422.782 159.95 423.309 159.922 423.972H158.69C158.727 422.927 159.044 422.119 159.642 421.55C160.239 420.981 161.009 420.696 161.952 420.696C162.913 420.696 163.674 420.962 164.234 421.494C164.803 422.026 165.088 422.759 165.088 423.692C165.088 424.467 164.854 425.223 164.388 425.96C163.93 426.688 163.408 427.332 162.82 427.892C162.232 428.443 161.48 429.087 160.566 429.824H165.382V430.888H158.648V429.978ZM166.854 425.834C166.854 424.229 167.116 422.978 167.638 422.082C168.161 421.177 169.076 420.724 170.382 420.724C171.68 420.724 172.59 421.177 173.112 422.082C173.635 422.978 173.896 424.229 173.896 425.834C173.896 427.467 173.635 428.737 173.112 429.642C172.59 430.547 171.68 431 170.382 431C169.076 431 168.161 430.547 167.638 429.642C167.116 428.737 166.854 427.467 166.854 425.834ZM172.636 425.834C172.636 425.022 172.58 424.336 172.468 423.776C172.366 423.207 172.146 422.749 171.81 422.404C171.484 422.059 171.008 421.886 170.382 421.886C169.748 421.886 169.262 422.059 168.926 422.404C168.6 422.749 168.38 423.207 168.268 423.776C168.166 424.336 168.114 425.022 168.114 425.834C168.114 426.674 168.166 427.379 168.268 427.948C168.38 428.517 168.6 428.975 168.926 429.32C169.262 429.665 169.748 429.838 170.382 429.838C171.008 429.838 171.484 429.665 171.81 429.32C172.146 428.975 172.366 428.517 172.468 427.948C172.58 427.379 172.636 426.674 172.636 425.834ZM175.491 429.978C176.677 429.026 177.605 428.247 178.277 427.64C178.949 427.024 179.514 426.385 179.971 425.722C180.438 425.05 180.671 424.392 180.671 423.748C180.671 423.141 180.522 422.665 180.223 422.32C179.934 421.965 179.463 421.788 178.809 421.788C178.175 421.788 177.68 421.989 177.325 422.39C176.98 422.782 176.793 423.309 176.765 423.972H175.533C175.571 422.927 175.888 422.119 176.485 421.55C177.083 420.981 177.853 420.696 178.795 420.696C179.757 420.696 180.517 420.962 181.077 421.494C181.647 422.026 181.931 422.759 181.931 423.692C181.931 424.467 181.698 425.223 181.231 425.96C180.774 426.688 180.251 427.332 179.663 427.892C179.075 428.443 178.324 429.087 177.409 429.824H182.225V430.888H175.491V429.978ZM183.67 423.426C183.735 422.567 184.067 421.895 184.664 421.41C185.261 420.925 186.036 420.682 186.988 420.682C187.623 420.682 188.169 420.799 188.626 421.032C189.093 421.256 189.443 421.564 189.676 421.956C189.919 422.348 190.04 422.791 190.04 423.286C190.04 423.865 189.872 424.364 189.536 424.784C189.209 425.204 188.78 425.475 188.248 425.596V425.666C188.855 425.815 189.335 426.109 189.69 426.548C190.045 426.987 190.222 427.561 190.222 428.27C190.222 428.802 190.101 429.283 189.858 429.712C189.615 430.132 189.251 430.463 188.766 430.706C188.281 430.949 187.697 431.07 187.016 431.07C186.027 431.07 185.215 430.813 184.58 430.3C183.945 429.777 183.591 429.04 183.516 428.088H184.748C184.813 428.648 185.042 429.105 185.434 429.46C185.826 429.815 186.349 429.992 187.002 429.992C187.655 429.992 188.15 429.824 188.486 429.488C188.831 429.143 189.004 428.699 189.004 428.158C189.004 427.458 188.771 426.954 188.304 426.646C187.837 426.338 187.133 426.184 186.19 426.184H185.868V425.12H186.204C187.063 425.111 187.711 424.971 188.15 424.7C188.589 424.42 188.808 423.991 188.808 423.412C188.808 422.917 188.645 422.521 188.318 422.222C188.001 421.923 187.543 421.774 186.946 421.774C186.367 421.774 185.901 421.923 185.546 422.222C185.191 422.521 184.981 422.922 184.916 423.426H183.67Z" fill="white"/>
<path d="M66.29 502.26H56.57V507.39C56.99 506.87 57.59 506.45 58.37 506.13C59.15 505.79 59.98 505.62 60.86 505.62C62.46 505.62 63.77 505.97 64.79 506.67C65.81 507.37 66.55 508.27 67.01 509.37C67.47 510.45 67.7 511.61 67.7 512.85C67.7 515.15 67.04 517 65.72 518.4C64.42 519.8 62.56 520.5 60.14 520.5C57.86 520.5 56.04 519.93 54.68 518.79C53.32 517.65 52.55 516.16 52.37 514.32H56.45C56.63 515.12 57.03 515.76 57.65 516.24C58.29 516.72 59.1 516.96 60.08 516.96C61.26 516.96 62.15 516.59 62.75 515.85C63.35 515.11 63.65 514.13 63.65 512.91C63.65 511.67 63.34 510.73 62.72 510.09C62.12 509.43 61.23 509.1 60.05 509.1C59.21 509.1 58.51 509.31 57.95 509.73C57.39 510.15 56.99 510.71 56.75 511.41H52.73V498.57H66.29V502.26ZM70.8966 509.28C70.8966 505.82 71.5166 503.11 72.7566 501.15C74.0166 499.19 76.0966 498.21 78.9966 498.21C81.8966 498.21 83.9666 499.19 85.2066 501.15C86.4666 503.11 87.0966 505.82 87.0966 509.28C87.0966 512.76 86.4666 515.49 85.2066 517.47C83.9666 519.45 81.8966 520.44 78.9966 520.44C76.0966 520.44 74.0166 519.45 72.7566 517.47C71.5166 515.49 70.8966 512.76 70.8966 509.28ZM82.9566 509.28C82.9566 507.8 82.8566 506.56 82.6566 505.56C82.4766 504.54 82.0966 503.71 81.5166 503.07C80.9566 502.43 80.1166 502.11 78.9966 502.11C77.8766 502.11 77.0266 502.43 76.4466 503.07C75.8866 503.71 75.5066 504.54 75.3066 505.56C75.1266 506.56 75.0366 507.8 75.0366 509.28C75.0366 510.8 75.1266 512.08 75.3066 513.12C75.4866 514.14 75.8666 514.97 76.4466 515.61C77.0266 516.23 77.8766 516.54 78.9966 516.54C80.1166 516.54 80.9666 516.23 81.5466 515.61C82.1266 514.97 82.5066 514.14 82.6866 513.12C82.8666 512.08 82.9566 510.8 82.9566 509.28ZM112.5 505.86C112.02 504.98 111.36 504.31 110.52 503.85C109.68 503.39 108.7 503.16 107.58 503.16C106.34 503.16 105.24 503.44 104.28 504C103.32 504.56 102.57 505.36 102.03 506.4C101.49 507.44 101.22 508.64 101.22 510C101.22 511.4 101.49 512.62 102.03 513.66C102.59 514.7 103.36 515.5 104.34 516.06C105.32 516.62 106.46 516.9 107.76 516.9C109.36 516.9 110.67 516.48 111.69 515.64C112.71 514.78 113.38 513.59 113.7 512.07H106.5V508.86H117.84V512.52C117.56 513.98 116.96 515.33 116.04 516.57C115.12 517.81 113.93 518.81 112.47 519.57C111.03 520.31 109.41 520.68 107.61 520.68C105.59 520.68 103.76 520.23 102.12 519.33C100.5 518.41 99.2196 517.14 98.2796 515.52C97.3596 513.9 96.8996 512.06 96.8996 510C96.8996 507.94 97.3596 506.1 98.2796 504.48C99.2196 502.84 100.5 501.57 102.12 500.67C103.76 499.75 105.58 499.29 107.58 499.29C109.94 499.29 111.99 499.87 113.73 501.03C115.47 502.17 116.67 503.78 117.33 505.86H112.5ZM132.827 509.76C134.007 509.98 134.977 510.57 135.737 511.53C136.497 512.49 136.877 513.59 136.877 514.83C136.877 515.95 136.597 516.94 136.037 517.8C135.497 518.64 134.707 519.3 133.667 519.78C132.627 520.26 131.397 520.5 129.977 520.5H120.947V499.56H129.587C131.007 499.56 132.227 499.79 133.247 500.25C134.287 500.71 135.067 501.35 135.587 502.17C136.127 502.99 136.397 503.92 136.397 504.96C136.397 506.18 136.067 507.2 135.407 508.02C134.767 508.84 133.907 509.42 132.827 509.76ZM125.147 508.2H128.987C129.987 508.2 130.757 507.98 131.297 507.54C131.837 507.08 132.107 506.43 132.107 505.59C132.107 504.75 131.837 504.1 131.297 503.64C130.757 503.18 129.987 502.95 128.987 502.95H125.147V508.2ZM129.377 517.08C130.397 517.08 131.187 516.84 131.747 516.36C132.327 515.88 132.617 515.2 132.617 514.32C132.617 513.42 132.317 512.72 131.717 512.22C131.117 511.7 130.307 511.44 129.287 511.44H125.147V517.08H129.377Z" fill="white"/>
<path d="M201.5 534C204.831 526.827 215.941 512.48 233.734 512.48C255.976 512.48 265.646 534 288.21 534C310.773 534 320.766 485 353 485" stroke="white" stroke-width="2"/>
</g>
<g filter="url(#filter2_dd_899_2579)">
<rect x="20" y="594" width="363" height="205" rx="10" fill="#43CED7"/>
<rect x="50" y="624" width="48" height="48" rx="24" fill="white" fill-opacity="0.2"/>
<path d="M68.4021 655.298C67.9316 655.298 67.5308 655.133 67.1997 654.802C66.8687 654.471 66.7031 654.069 66.7031 653.596V650.495C66.7031 650.027 66.8687 649.627 67.1997 649.295C67.5308 648.964 67.9328 648.798 68.4056 648.798C68.8745 648.798 69.2744 648.964 69.6055 649.295C69.9366 649.627 70.1021 650.027 70.1021 650.495V653.596C70.1021 654.069 69.9364 654.471 69.6049 654.802C69.2735 655.133 68.8725 655.298 68.4021 655.298ZM74.0014 655.298C73.5288 655.298 73.1278 655.133 72.7983 654.802C72.4688 654.472 72.3041 654.07 72.3041 653.598V642.399C72.3041 641.93 72.4692 641.53 72.7995 641.199C73.1297 640.868 73.5307 640.702 74.0023 640.702C74.474 640.702 74.8754 640.868 75.2065 641.199C75.5375 641.531 75.7031 641.931 75.7031 642.399V653.599C75.7031 654.071 75.5376 654.472 75.2067 654.803C74.8758 655.133 74.474 655.298 74.0014 655.298ZM79.5992 655.298C79.1287 655.298 78.7279 655.133 78.3969 654.802C78.0658 654.471 77.9002 654.069 77.9002 653.596V647.303C77.9002 646.834 78.0658 646.434 78.3968 646.103C78.7279 645.772 79.1299 645.606 79.6027 645.606C80.0715 645.606 80.4715 645.772 80.8026 646.103C81.1337 646.434 81.2992 646.834 81.2992 647.303V653.596C81.2992 654.069 81.1335 654.471 80.802 654.802C80.4706 655.133 80.0696 655.298 79.5992 655.298Z" fill="white"/>
<path d="M115.436 631.49C116.768 631.49 117.932 631.748 118.928 632.264C119.936 632.768 120.71 633.5 121.25 634.46C121.802 635.408 122.078 636.518 122.078 637.79C122.078 639.062 121.802 640.166 121.25 641.102C120.71 642.038 119.936 642.758 118.928 643.262C117.932 643.754 116.768 644 115.436 644H111.35V631.49H115.436ZM115.436 642.326C116.9 642.326 118.022 641.93 118.802 641.138C119.582 640.346 119.972 639.23 119.972 637.79C119.972 636.338 119.582 635.204 118.802 634.388C118.022 633.572 116.9 633.164 115.436 633.164H113.402V642.326H115.436ZM128.414 644.162C127.478 644.162 126.632 643.952 125.876 643.532C125.12 643.1 124.526 642.5 124.094 641.732C123.662 640.952 123.446 640.052 123.446 639.032C123.446 638.024 123.668 637.13 124.112 636.35C124.556 635.57 125.162 634.97 125.93 634.55C126.698 634.13 127.556 633.92 128.504 633.92C129.452 633.92 130.31 634.13 131.078 634.55C131.846 634.97 132.452 635.57 132.896 636.35C133.34 637.13 133.562 638.024 133.562 639.032C133.562 640.04 133.334 640.934 132.878 641.714C132.422 642.494 131.798 643.1 131.006 643.532C130.226 643.952 129.362 644.162 128.414 644.162ZM128.414 642.38C128.942 642.38 129.434 642.254 129.89 642.002C130.358 641.75 130.736 641.372 131.024 640.868C131.312 640.364 131.456 639.752 131.456 639.032C131.456 638.312 131.318 637.706 131.042 637.214C130.766 636.71 130.4 636.332 129.944 636.08C129.488 635.828 128.996 635.702 128.468 635.702C127.94 635.702 127.448 635.828 126.992 636.08C126.548 636.332 126.194 636.71 125.93 637.214C125.666 637.706 125.534 638.312 125.534 639.032C125.534 640.1 125.804 640.928 126.344 641.516C126.896 642.092 127.586 642.38 128.414 642.38ZM148.91 634.082L145.832 644H143.672L141.674 636.674L139.676 644H137.516L134.42 634.082H136.508L138.578 642.056L140.684 634.082H142.826L144.842 642.02L146.894 634.082H148.91ZM155.448 633.92C156.228 633.92 156.924 634.082 157.536 634.406C158.16 634.73 158.646 635.21 158.994 635.846C159.342 636.482 159.516 637.25 159.516 638.15V644H157.482V638.456C157.482 637.568 157.26 636.89 156.816 636.422C156.372 635.942 155.766 635.702 154.998 635.702C154.23 635.702 153.618 635.942 153.162 636.422C152.718 636.89 152.496 637.568 152.496 638.456V644H150.444V634.082H152.496V635.216C152.832 634.808 153.258 634.49 153.774 634.262C154.302 634.034 154.86 633.92 155.448 633.92ZM164.185 630.68V644H162.133V630.68H164.185ZM171.181 644.162C170.245 644.162 169.399 643.952 168.643 643.532C167.887 643.1 167.293 642.5 166.861 641.732C166.429 640.952 166.213 640.052 166.213 639.032C166.213 638.024 166.435 637.13 166.879 636.35C167.323 635.57 167.929 634.97 168.697 634.55C169.465 634.13 170.323 633.92 171.271 633.92C172.219 633.92 173.077 634.13 173.845 634.55C174.613 634.97 175.219 635.57 175.663 636.35C176.107 637.13 176.329 638.024 176.329 639.032C176.329 640.04 176.101 640.934 175.645 641.714C175.189 642.494 174.565 643.1 173.773 643.532C172.993 643.952 172.129 644.162 171.181 644.162ZM171.181 642.38C171.709 642.38 172.201 642.254 172.657 642.002C173.125 641.75 173.503 641.372 173.791 640.868C174.079 640.364 174.223 639.752 174.223 639.032C174.223 638.312 174.085 637.706 173.809 637.214C173.533 636.71 173.167 636.332 172.711 636.08C172.255 635.828 171.763 635.702 171.235 635.702C170.707 635.702 170.215 635.828 169.759 636.08C169.315 636.332 168.961 636.71 168.697 637.214C168.433 637.706 168.301 638.312 168.301 639.032C168.301 640.1 168.571 640.928 169.111 641.516C169.663 642.092 170.353 642.38 171.181 642.38ZM177.674 638.996C177.674 638 177.878 637.118 178.286 636.35C178.706 635.582 179.27 634.988 179.978 634.568C180.698 634.136 181.49 633.92 182.354 633.92C183.134 633.92 183.812 634.076 184.388 634.388C184.976 634.688 185.444 635.066 185.792 635.522V634.082H187.862V644H185.792V642.524C185.444 642.992 184.97 643.382 184.37 643.694C183.77 644.006 183.086 644.162 182.318 644.162C181.466 644.162 180.686 643.946 179.978 643.514C179.27 643.07 178.706 642.458 178.286 641.678C177.878 640.886 177.674 639.992 177.674 638.996ZM185.792 639.032C185.792 638.348 185.648 637.754 185.36 637.25C185.084 636.746 184.718 636.362 184.262 636.098C183.806 635.834 183.314 635.702 182.786 635.702C182.258 635.702 181.766 635.834 181.31 636.098C180.854 636.35 180.482 636.728 180.194 637.232C179.918 637.724 179.78 638.312 179.78 638.996C179.78 639.68 179.918 640.28 180.194 640.796C180.482 641.312 180.854 641.708 181.31 641.984C181.778 642.248 182.27 642.38 182.786 642.38C183.314 642.38 183.806 642.248 184.262 641.984C184.718 641.72 185.084 641.336 185.36 640.832C185.648 640.316 185.792 639.716 185.792 639.032ZM189.873 638.996C189.873 638 190.077 637.118 190.485 636.35C190.905 635.582 191.469 634.988 192.177 634.568C192.897 634.136 193.695 633.92 194.571 633.92C195.219 633.92 195.855 634.064 196.479 634.352C197.115 634.628 197.619 635 197.991 635.468V630.68H200.061V644H197.991V642.506C197.655 642.986 197.187 643.382 196.587 643.694C195.999 644.006 195.321 644.162 194.553 644.162C193.689 644.162 192.897 643.946 192.177 643.514C191.469 643.07 190.905 642.458 190.485 641.678C190.077 640.886 189.873 639.992 189.873 638.996ZM197.991 639.032C197.991 638.348 197.847 637.754 197.559 637.25C197.283 636.746 196.917 636.362 196.461 636.098C196.005 635.834 195.513 635.702 194.985 635.702C194.457 635.702 193.965 635.834 193.509 636.098C193.053 636.35 192.681 636.728 192.393 637.232C192.117 637.724 191.979 638.312 191.979 638.996C191.979 639.68 192.117 640.28 192.393 640.796C192.681 641.312 193.053 641.708 193.509 641.984C193.977 642.248 194.469 642.38 194.985 642.38C195.513 642.38 196.005 642.248 196.461 641.984C196.917 641.72 197.283 641.336 197.559 640.832C197.847 640.316 197.991 639.716 197.991 639.032ZM206.748 639.032C206.748 638.012 206.952 637.118 207.36 636.35C207.78 635.57 208.356 634.97 209.088 634.55C209.82 634.13 210.66 633.92 211.608 633.92C212.808 633.92 213.798 634.208 214.578 634.784C215.37 635.348 215.904 636.158 216.18 637.214H213.966C213.786 636.722 213.498 636.338 213.102 636.062C212.706 635.786 212.208 635.648 211.608 635.648C210.768 635.648 210.096 635.948 209.592 636.548C209.1 637.136 208.854 637.964 208.854 639.032C208.854 640.1 209.1 640.934 209.592 641.534C210.096 642.134 210.768 642.434 211.608 642.434C212.796 642.434 213.582 641.912 213.966 640.868H216.18C215.892 641.876 215.352 642.68 214.56 643.28C213.768 643.868 212.784 644.162 211.608 644.162C210.66 644.162 209.82 643.952 209.088 643.532C208.356 643.1 207.78 642.5 207.36 641.732C206.952 640.952 206.748 640.052 206.748 639.032ZM222.527 644.162C221.591 644.162 220.745 643.952 219.989 643.532C219.233 643.1 218.639 642.5 218.207 641.732C217.775 640.952 217.559 640.052 217.559 639.032C217.559 638.024 217.781 637.13 218.225 636.35C218.669 635.57 219.275 634.97 220.043 634.55C220.811 634.13 221.669 633.92 222.617 633.92C223.565 633.92 224.423 634.13 225.191 634.55C225.959 634.97 226.565 635.57 227.009 636.35C227.453 637.13 227.675 638.024 227.675 639.032C227.675 640.04 227.447 640.934 226.991 641.714C226.535 642.494 225.911 643.1 225.119 643.532C224.339 643.952 223.475 644.162 222.527 644.162ZM222.527 642.38C223.055 642.38 223.547 642.254 224.003 642.002C224.471 641.75 224.849 641.372 225.137 640.868C225.425 640.364 225.569 639.752 225.569 639.032C225.569 638.312 225.431 637.706 225.155 637.214C224.879 636.71 224.513 636.332 224.057 636.08C223.601 635.828 223.109 635.702 222.581 635.702C222.053 635.702 221.561 635.828 221.105 636.08C220.661 636.332 220.307 636.71 220.043 637.214C219.779 637.706 219.647 638.312 219.647 639.032C219.647 640.1 219.917 640.928 220.457 641.516C221.009 642.092 221.699 642.38 222.527 642.38ZM238.686 634.082V644H236.634V642.83C236.31 643.238 235.884 643.562 235.356 643.802C234.84 644.03 234.288 644.144 233.7 644.144C232.92 644.144 232.218 643.982 231.594 643.658C230.982 643.334 230.496 642.854 230.136 642.218C229.788 641.582 229.614 640.814 229.614 639.914V634.082H231.648V639.608C231.648 640.496 231.87 641.18 232.314 641.66C232.758 642.128 233.364 642.362 234.132 642.362C234.9 642.362 235.506 642.128 235.95 641.66C236.406 641.18 236.634 640.496 236.634 639.608V634.082H238.686ZM246.397 633.92C247.177 633.92 247.873 634.082 248.485 634.406C249.109 634.73 249.595 635.21 249.943 635.846C250.291 636.482 250.465 637.25 250.465 638.15V644H248.431V638.456C248.431 637.568 248.209 636.89 247.765 636.422C247.321 635.942 246.715 635.702 245.947 635.702C245.179 635.702 244.567 635.942 244.111 636.422C243.667 636.89 243.445 637.568 243.445 638.456V644H241.393V634.082H243.445V635.216C243.781 634.808 244.207 634.49 244.723 634.262C245.251 634.034 245.809 633.92 246.397 633.92ZM255.476 635.756V641.246C255.476 641.618 255.56 641.888 255.728 642.056C255.908 642.212 256.208 642.29 256.628 642.29H257.888V644H256.268C255.344 644 254.636 643.784 254.144 643.352C253.652 642.92 253.406 642.218 253.406 641.246V635.756H252.236V634.082H253.406V631.616H255.476V634.082H257.888V635.756H255.476Z" fill="white"/>
<path opacity="0.7" d="M120.976 656.312V666H119.702V658.776L116.482 666H115.586L112.352 658.762V666H111.078V656.312H112.45L116.034 664.32L119.618 656.312H120.976ZM122.661 662.136C122.661 661.352 122.819 660.666 123.137 660.078C123.454 659.481 123.888 659.019 124.439 658.692C124.999 658.365 125.619 658.202 126.301 658.202C126.973 658.202 127.556 658.347 128.051 658.636C128.545 658.925 128.914 659.289 129.157 659.728V658.328H130.445V666H129.157V664.572C128.905 665.02 128.527 665.393 128.023 665.692C127.528 665.981 126.949 666.126 126.287 666.126C125.605 666.126 124.989 665.958 124.439 665.622C123.888 665.286 123.454 664.815 123.137 664.208C122.819 663.601 122.661 662.911 122.661 662.136ZM129.157 662.15C129.157 661.571 129.04 661.067 128.807 660.638C128.573 660.209 128.256 659.882 127.855 659.658C127.463 659.425 127.029 659.308 126.553 659.308C126.077 659.308 125.643 659.42 125.251 659.644C124.859 659.868 124.546 660.195 124.313 660.624C124.079 661.053 123.963 661.557 123.963 662.136C123.963 662.724 124.079 663.237 124.313 663.676C124.546 664.105 124.859 664.437 125.251 664.67C125.643 664.894 126.077 665.006 126.553 665.006C127.029 665.006 127.463 664.894 127.855 664.67C128.256 664.437 128.573 664.105 128.807 663.676C129.04 663.237 129.157 662.729 129.157 662.15ZM133.872 659.574C134.096 659.135 134.413 658.795 134.824 658.552C135.244 658.309 135.752 658.188 136.35 658.188V659.504H136.014C134.586 659.504 133.872 660.279 133.872 661.828V666H132.598V658.328H133.872V659.574ZM137.344 662.15C137.344 661.357 137.503 660.666 137.82 660.078C138.138 659.481 138.576 659.019 139.136 658.692C139.706 658.365 140.354 658.202 141.082 658.202C142.025 658.202 142.8 658.431 143.406 658.888C144.022 659.345 144.428 659.98 144.624 660.792H143.252C143.122 660.325 142.865 659.957 142.482 659.686C142.109 659.415 141.642 659.28 141.082 659.28C140.354 659.28 139.766 659.532 139.318 660.036C138.87 660.531 138.646 661.235 138.646 662.15C138.646 663.074 138.87 663.788 139.318 664.292C139.766 664.796 140.354 665.048 141.082 665.048C141.642 665.048 142.109 664.917 142.482 664.656C142.856 664.395 143.112 664.021 143.252 663.536H144.624C144.419 664.32 144.008 664.95 143.392 665.426C142.776 665.893 142.006 666.126 141.082 666.126C140.354 666.126 139.706 665.963 139.136 665.636C138.576 665.309 138.138 664.847 137.82 664.25C137.503 663.653 137.344 662.953 137.344 662.15ZM150.132 658.188C150.711 658.188 151.233 658.314 151.7 658.566C152.167 658.809 152.531 659.177 152.792 659.672C153.063 660.167 153.198 660.769 153.198 661.478V666H151.938V661.66C151.938 660.895 151.747 660.311 151.364 659.91C150.981 659.499 150.459 659.294 149.796 659.294C149.124 659.294 148.587 659.504 148.186 659.924C147.794 660.344 147.598 660.955 147.598 661.758V666H146.324V655.64H147.598V659.42C147.85 659.028 148.195 658.725 148.634 658.51C149.082 658.295 149.581 658.188 150.132 658.188ZM158.648 664.978C159.833 664.026 160.762 663.247 161.434 662.64C162.106 662.024 162.67 661.385 163.128 660.722C163.594 660.05 163.828 659.392 163.828 658.748C163.828 658.141 163.678 657.665 163.38 657.32C163.09 656.965 162.619 656.788 161.966 656.788C161.331 656.788 160.836 656.989 160.482 657.39C160.136 657.782 159.95 658.309 159.922 658.972H158.69C158.727 657.927 159.044 657.119 159.642 656.55C160.239 655.981 161.009 655.696 161.952 655.696C162.913 655.696 163.674 655.962 164.234 656.494C164.803 657.026 165.088 657.759 165.088 658.692C165.088 659.467 164.854 660.223 164.388 660.96C163.93 661.688 163.408 662.332 162.82 662.892C162.232 663.443 161.48 664.087 160.566 664.824H165.382V665.888H158.648V664.978ZM166.854 660.834C166.854 659.229 167.116 657.978 167.638 657.082C168.161 656.177 169.076 655.724 170.382 655.724C171.68 655.724 172.59 656.177 173.112 657.082C173.635 657.978 173.896 659.229 173.896 660.834C173.896 662.467 173.635 663.737 173.112 664.642C172.59 665.547 171.68 666 170.382 666C169.076 666 168.161 665.547 167.638 664.642C167.116 663.737 166.854 662.467 166.854 660.834ZM172.636 660.834C172.636 660.022 172.58 659.336 172.468 658.776C172.366 658.207 172.146 657.749 171.81 657.404C171.484 657.059 171.008 656.886 170.382 656.886C169.748 656.886 169.262 657.059 168.926 657.404C168.6 657.749 168.38 658.207 168.268 658.776C168.166 659.336 168.114 660.022 168.114 660.834C168.114 661.674 168.166 662.379 168.268 662.948C168.38 663.517 168.6 663.975 168.926 664.32C169.262 664.665 169.748 664.838 170.382 664.838C171.008 664.838 171.484 664.665 171.81 664.32C172.146 663.975 172.366 663.517 172.468 662.948C172.58 662.379 172.636 661.674 172.636 660.834ZM175.491 664.978C176.677 664.026 177.605 663.247 178.277 662.64C178.949 662.024 179.514 661.385 179.971 660.722C180.438 660.05 180.671 659.392 180.671 658.748C180.671 658.141 180.522 657.665 180.223 657.32C179.934 656.965 179.463 656.788 178.809 656.788C178.175 656.788 177.68 656.989 177.325 657.39C176.98 657.782 176.793 658.309 176.765 658.972H175.533C175.571 657.927 175.888 657.119 176.485 656.55C177.083 655.981 177.853 655.696 178.795 655.696C179.757 655.696 180.517 655.962 181.077 656.494C181.647 657.026 181.931 657.759 181.931 658.692C181.931 659.467 181.698 660.223 181.231 660.96C180.774 661.688 180.251 662.332 179.663 662.892C179.075 663.443 178.324 664.087 177.409 664.824H182.225V665.888H175.491V664.978ZM183.67 658.426C183.735 657.567 184.067 656.895 184.664 656.41C185.261 655.925 186.036 655.682 186.988 655.682C187.623 655.682 188.169 655.799 188.626 656.032C189.093 656.256 189.443 656.564 189.676 656.956C189.919 657.348 190.04 657.791 190.04 658.286C190.04 658.865 189.872 659.364 189.536 659.784C189.209 660.204 188.78 660.475 188.248 660.596V660.666C188.855 660.815 189.335 661.109 189.69 661.548C190.045 661.987 190.222 662.561 190.222 663.27C190.222 663.802 190.101 664.283 189.858 664.712C189.615 665.132 189.251 665.463 188.766 665.706C188.281 665.949 187.697 666.07 187.016 666.07C186.027 666.07 185.215 665.813 184.58 665.3C183.945 664.777 183.591 664.04 183.516 663.088H184.748C184.813 663.648 185.042 664.105 185.434 664.46C185.826 664.815 186.349 664.992 187.002 664.992C187.655 664.992 188.15 664.824 188.486 664.488C188.831 664.143 189.004 663.699 189.004 663.158C189.004 662.458 188.771 661.954 188.304 661.646C187.837 661.338 187.133 661.184 186.19 661.184H185.868V660.12H186.204C187.063 660.111 187.711 659.971 188.15 659.7C188.589 659.42 188.808 658.991 188.808 658.412C188.808 657.917 188.645 657.521 188.318 657.222C188.001 656.923 187.543 656.774 186.946 656.774C186.367 656.774 185.901 656.923 185.546 657.222C185.191 657.521 184.981 657.922 184.916 658.426H183.67Z" fill="white"/>
<path d="M51.65 739.39C51.75 737.39 52.45 735.85 53.75 734.77C55.07 733.67 56.8 733.12 58.94 733.12C60.4 733.12 61.65 733.38 62.69 733.9C63.73 734.4 64.51 735.09 65.03 735.97C65.57 736.83 65.84 737.81 65.84 738.91C65.84 740.17 65.51 741.24 64.85 742.12C64.21 742.98 63.44 743.56 62.54 743.86V743.98C63.7 744.34 64.6 744.98 65.24 745.9C65.9 746.82 66.23 748 66.23 749.44C66.23 750.64 65.95 751.71 65.39 752.65C64.85 753.59 64.04 754.33 62.96 754.87C61.9 755.39 60.62 755.65 59.12 755.65C56.86 755.65 55.02 755.08 53.6 753.94C52.18 752.8 51.43 751.12 51.35 748.9H55.43C55.47 749.88 55.8 750.67 56.42 751.27C57.06 751.85 57.93 752.14 59.03 752.14C60.05 752.14 60.83 751.86 61.37 751.3C61.93 750.72 62.21 749.98 62.21 749.08C62.21 747.88 61.83 747.02 61.07 746.5C60.31 745.98 59.13 745.72 57.53 745.72H56.66V742.27H57.53C60.37 742.27 61.79 741.32 61.79 739.42C61.79 738.56 61.53 737.89 61.01 737.41C60.51 736.93 59.78 736.69 58.82 736.69C57.88 736.69 57.15 736.95 56.63 737.47C56.13 737.97 55.84 738.61 55.76 739.39H51.65ZM84.249 737.26H74.529V742.39C74.949 741.87 75.549 741.45 76.329 741.13C77.109 740.79 77.939 740.62 78.819 740.62C80.419 740.62 81.729 740.97 82.749 741.67C83.769 742.37 84.509 743.27 84.969 744.37C85.429 745.45 85.659 746.61 85.659 747.85C85.659 750.15 84.999 752 83.679 753.4C82.379 754.8 80.519 755.5 78.099 755.5C75.819 755.5 73.999 754.93 72.639 753.79C71.279 752.65 70.509 751.16 70.329 749.32H74.409C74.589 750.12 74.989 750.76 75.609 751.24C76.249 751.72 77.059 751.96 78.039 751.96C79.219 751.96 80.109 751.59 80.709 750.85C81.309 750.11 81.609 749.13 81.609 747.91C81.609 746.67 81.299 745.73 80.679 745.09C80.079 744.43 79.189 744.1 78.009 744.1C77.169 744.1 76.469 744.31 75.909 744.73C75.349 745.15 74.949 745.71 74.709 746.41H70.689V733.57H84.249V737.26ZM88.6756 751.24V747.94L98.4856 733.9H103.376V747.58H106.016V751.24H103.376V755.5H99.1756V751.24H88.6756ZM99.4456 738.4L93.2956 747.58H99.4456V738.4ZM112.35 743.92C110.35 742.88 109.35 741.27 109.35 739.09C109.35 738.01 109.62 737.03 110.16 736.15C110.72 735.25 111.55 734.54 112.65 734.02C113.77 733.48 115.13 733.21 116.73 733.21C118.33 733.21 119.68 733.48 120.78 734.02C121.9 734.54 122.73 735.25 123.27 736.15C123.83 737.03 124.11 738.01 124.11 739.09C124.11 740.19 123.84 741.16 123.3 742C122.76 742.82 122.04 743.46 121.14 743.92C122.24 744.4 123.1 745.1 123.72 746.02C124.34 746.94 124.65 748.03 124.65 749.29C124.65 750.65 124.3 751.84 123.6 752.86C122.92 753.86 121.98 754.63 120.78 755.17C119.58 755.71 118.23 755.98 116.73 755.98C115.23 755.98 113.88 755.71 112.68 755.17C111.5 754.63 110.56 753.86 109.86 752.86C109.18 751.84 108.84 750.65 108.84 749.29C108.84 748.03 109.15 746.94 109.77 746.02C110.39 745.08 111.25 744.38 112.35 743.92ZM120.03 739.69C120.03 738.71 119.73 737.95 119.13 737.41C118.55 736.87 117.75 736.6 116.73 736.6C115.73 736.6 114.93 736.87 114.33 737.41C113.75 737.95 113.46 738.72 113.46 739.72C113.46 740.62 113.76 741.34 114.36 741.88C114.98 742.42 115.77 742.69 116.73 742.69C117.69 742.69 118.48 742.42 119.1 741.88C119.72 741.32 120.03 740.59 120.03 739.69ZM116.73 745.75C115.59 745.75 114.66 746.04 113.94 746.62C113.24 747.2 112.89 748.03 112.89 749.11C112.89 750.11 113.23 750.93 113.91 751.57C114.61 752.19 115.55 752.5 116.73 752.5C117.91 752.5 118.84 752.18 119.52 751.54C120.2 750.9 120.54 750.09 120.54 749.11C120.54 748.05 120.19 747.23 119.49 746.65C118.79 746.05 117.87 745.75 116.73 745.75ZM141.887 736.81L133.907 755.5H129.647L137.687 737.29H127.427V733.69H141.887V736.81Z" fill="white"/>
<g opacity="0.7" clip-path="url(#clip0_899_2579)">
<rect x="203.5" y="754.942" width="4" height="14.0573" rx="2" fill="white"/>
<rect x="216.773" y="750.221" width="4" height="18.7794" rx="2" fill="white"/>
<rect x="230.047" y="760.089" width="4" height="8.91141" rx="2" fill="white"/>
<rect x="243.316" y="731.463" width="4" height="37.5374" rx="2" fill="white"/>
<rect x="256.59" y="739.553" width="4" height="29.4474" rx="2" fill="white"/>
<rect x="269.863" y="725.239" width="4" height="43.7605" rx="2" fill="white"/>
<rect x="283.137" y="753.243" width="4" height="15.7567" rx="2" fill="white"/>
<rect x="296.41" y="741.33" width="4" height="27.6694" rx="2" fill="white"/>
<rect x="309.684" y="756.177" width="4" height="12.823" rx="2" fill="white"/>
<rect x="322.953" y="750.221" width="4" height="18.7794" rx="2" fill="white"/>
<rect x="336.227" y="760.089" width="4" height="8.91141" rx="2" fill="white"/>
<rect x="349.5" y="748.531" width="4" height="20.4685" rx="2" fill="white"/>
</g>
</g>
<defs>
<filter id="filter0_dd_899_2579" x="16" y="7" width="371" height="329" filterUnits="userSpaceOnUse" color-interpolation-filters="sRGB">
<feFlood flood-opacity="0" result="BackgroundImageFix"/>
<feColorMatrix in="SourceAlpha" type="matrix" values="0 0 0 0 0 0 0 0 0 0 0 0 0 0 0 0 0 0 127 0" result="hardAlpha"/>
<feOffset dy="3"/>
<feGaussianBlur stdDeviation="2"/>
<feComposite in2="hardAlpha" operator="out"/>
<feColorMatrix type="matrix" values="0 0 0 0 0 0 0 0 0 0 0 0 0 0 0 0 0 0 0.03 0"/>
<feBlend mode="normal" in2="BackgroundImageFix" result="effect1_dropShadow_899_2579"/>
<feColorMatrix in="SourceAlpha" type="matrix" values="0 0 0 0 0 0 0 0 0 0 0 0 0 0 0 0 0 0 127 0" result="hardAlpha"/>
<feOffset/>
<feGaussianBlur stdDeviation="0.5"/>
<feComposite in2="hardAlpha" operator="out"/>
<feColorMatrix type="matrix" values="0 0 0 0 0 0 0 0 0 0 0 0 0 0 0 0 0 0 0.1 0"/>
<feBlend mode="normal" in2="effect1_dropShadow_899_2579" result="effect2_dropShadow_899_2579"/>
<feBlend mode="normal" in="SourceGraphic" in2="effect2_dropShadow_899_2579" result="shape"/>
</filter>
<filter id="filter1_dd_899_2579" x="16" y="358" width="371" height="213" filterUnits="userSpaceOnUse" color-interpolation-filters="sRGB">
<feFlood flood-opacity="0" result="BackgroundImageFix"/>
<feColorMatrix in="SourceAlpha" type="matrix" values="0 0 0 0 0 0 0 0 0 0 0 0 0 0 0 0 0 0 127 0" result="hardAlpha"/>
<feOffset dy="3"/>
<feGaussianBlur stdDeviation="2"/>
<feComposite in2="hardAlpha" operator="out"/>
<feColorMatrix type="matrix" values="0 0 0 0 0 0 0 0 0 0 0 0 0 0 0 0 0 0 0.03 0"/>
<feBlend mode="normal" in2="BackgroundImageFix" result="effect1_dropShadow_899_2579"/>
<feColorMatrix in="SourceAlpha" type="matrix" values="0 0 0 0 0 0 0 0 0 0 0 0 0 0 0 0 0 0 127 0" result="hardAlpha"/>
<feOffset/>
<feGaussianBlur stdDeviation="0.5"/>
<feComposite in2="hardAlpha" operator="out"/>
<feColorMatrix type="matrix" values="0 0 0 0 0 0 0 0 0 0 0 0 0 0 0 0 0 0 0.1 0"/>
<feBlend mode="normal" in2="effect1_dropShadow_899_2579" result="effect2_dropShadow_899_2579"/>
<feBlend mode="normal" in="SourceGraphic" in2="effect2_dropShadow_899_2579" result="shape"/>
</filter>
<filter id="filter2_dd_899_2579" x="16" y="593" width="371" height="213" filterUnits="userSpaceOnUse" color-interpolation-filters="sRGB">
<feFlood flood-opacity="0" result="BackgroundImageFix"/>
<feColorMatrix in="SourceAlpha" type="matrix" values="0 0 0 0 0 0 0 0 0 0 0 0 0 0 0 0 0 0 127 0" result="hardAlpha"/>
<feOffset dy="3"/>
<feGaussianBlur stdDeviation="2"/>
<feComposite in2="hardAlpha" operator="out"/>
<feColorMatrix type="matrix" values="0 0 0 0 0 0 0 0 0 0 0 0 0 0 0 0 0 0 0.03 0"/>
<feBlend mode="normal" in2="BackgroundImageFix" result="effect1_dropShadow_899_2579"/>
<feColorMatrix in="SourceAlpha" type="matrix" values="0 0 0 0 0 0 0 0 0 0 0 0 0 0 0 0 0 0 127 0" result="hardAlpha"/>
<feOffset/>
<feGaussianBlur stdDeviation="0.5"/>
<feComposite in2="hardAlpha" operator="out"/>
<feColorMatrix type="matrix" values="0 0 0 0 0 0 0 0 0 0 0 0 0 0 0 0 0 0 0.1 0"/>
<feBlend mode="normal" in2="effect1_dropShadow_899_2579" result="effect2_dropShadow_899_2579"/>
<feBlend mode="normal" in="SourceGraphic" in2="effect2_dropShadow_899_2579" result="shape"/>
</filter>
<clipPath id="clip0_899_2579">
<rect width="149.5" height="49" fill="white" transform="translate(203.5 720)"/>
</clipPath>
</defs>
</svg>
